<svg id="svg" version="1.1" xmlns="http://www.w3.org/2000/svg" xmlns:xlink="http://www.w3.org/1999/xlink" width="400" height="400" viewBox="0, 0, 400,400"><g id="svgg"><path id="path0" d="M210.200 24.023 C 206.156 24.888,204.471 25.367,202.800 26.127 C 194.611 29.850,189.178 36.281,186.347 45.600 C 185.913 47.028,185.800 51.909,185.800 69.200 C 185.800 91.119,185.844 91.931,187.205 95.400 C 187.378 95.840,187.746 96.801,188.023 97.536 C 190.494 104.089,197.779 110.629,205.400 113.137 C 220.989 118.269,237.537 109.210,242.001 93.100 C 243.025 89.404,243.217 50.009,242.230 46.000 C 238.696 31.639,223.460 21.185,210.200 24.023 M280.967 26.867 C 274.385 30.385,269.279 36.380,266.886 43.400 C 265.443 47.633,265.400 48.371,265.400 69.200 C 265.400 90.029,265.442 90.766,266.885 95.000 C 271.222 107.725,284.504 116.159,297.391 114.372 C 310.048 112.618,319.643 103.827,322.233 91.610 C 323.042 87.795,323.056 51.502,322.249 50.729 C 321.945 50.438,321.134 49.750,320.446 49.200 C 319.757 48.650,318.530 47.615,317.719 46.900 C 316.907 46.185,316.024 45.600,315.755 45.600 C 315.486 45.600,315.207 45.449,315.133 45.264 C 314.924 44.735,310.867 42.000,310.292 42.000 C 310.009 42.000,309.517 41.640,309.200 41.200 C 308.883 40.760,308.393 40.400,308.112 40.400 C 307.830 40.400,307.600 40.220,307.600 40.000 C 307.600 39.780,307.330 39.600,307.000 39.600 C 306.670 39.600,306.400 39.420,306.400 39.200 C 306.400 38.980,306.130 38.800,305.800 38.800 C 305.470 38.800,305.200 38.620,305.200 38.400 C 305.200 38.180,304.964 38.000,304.675 38.000 C 304.387 38.000,303.764 37.640,303.292 37.200 C 302.820 36.760,302.156 36.400,301.817 36.400 C 301.478 36.400,301.200 36.220,301.200 36.000 C 301.200 35.780,300.930 35.600,300.600 35.600 C 300.270 35.600,300.000 35.420,300.000 35.200 C 300.000 34.980,299.730 34.800,299.400 34.800 C 299.070 34.800,298.800 34.620,298.800 34.400 C 298.800 34.180,298.455 34.000,298.033 34.000 C 297.612 34.000,297.207 33.865,297.133 33.700 C 297.005 33.411,294.366 31.882,292.503 31.017 C 292.010 30.787,291.605 30.465,291.603 30.300 C 291.601 30.135,291.240 30.000,290.800 30.000 C 290.360 30.000,290.000 29.820,290.000 29.600 C 290.000 29.380,289.640 29.200,289.200 29.200 C 288.760 29.200,288.399 29.065,288.397 28.900 C 288.393 28.499,286.419 27.600,285.544 27.600 C 285.161 27.600,284.734 27.417,284.596 27.193 C 284.458 26.970,284.150 26.907,283.912 27.055 C 283.674 27.202,283.266 27.031,283.006 26.676 C 282.575 26.087,282.394 26.104,280.967 26.867 M219.426 40.551 C 222.183 41.835,224.126 43.629,225.689 46.331 L 227.000 48.600 227.000 69.000 L 227.000 89.400 226.010 91.400 C 221.115 101.284,207.139 101.166,202.438 91.200 L 201.400 89.000 201.400 69.200 C 201.400 47.679,201.340 48.309,203.711 44.939 C 207.093 40.131,214.239 38.136,219.426 40.551 M299.609 40.730 C 303.099 42.506,305.467 45.315,306.586 49.006 C 307.454 51.866,307.484 86.436,306.621 89.278 C 303.142 100.745,287.882 102.207,282.523 91.588 L 281.217 89.000 281.209 69.311 L 281.200 49.623 282.156 47.461 C 285.140 40.715,293.354 37.547,299.609 40.730 M58.800 131.764 C 55.784 132.490,52.999 133.499,51.259 134.495 C 50.457 134.955,49.341 135.567,48.780 135.855 C 44.730 137.935,39.061 145.209,37.288 150.600 C 35.792 155.147,35.800 155.002,35.800 176.600 C 35.800 198.198,35.792 198.053,37.288 202.600 C 45.034 226.145,78.254 228.839,89.736 206.853 C 93.042 200.523,93.000 200.910,93.000 176.400 L 93.000 154.600 91.754 151.108 C 86.807 137.248,72.035 128.577,58.800 131.764 M207.652 132.030 C 202.736 133.299,197.004 136.509,193.798 139.789 C 192.916 140.691,190.168 144.257,189.662 145.155 C 188.024 148.065,187.668 148.859,186.776 151.600 L 185.800 154.600 185.800 176.800 L 185.800 199.000 186.733 201.600 C 188.511 206.552,189.903 209.014,193.043 212.761 C 207.045 229.467,236.202 222.284,241.973 200.707 C 243.089 196.535,243.256 158.015,242.178 153.367 C 238.638 138.105,222.575 128.177,207.652 132.030 M126.321 134.016 C 121.259 136.690,121.140 144.394,126.121 147.095 C 127.063 147.606,128.719 147.843,132.400 147.994 L 137.400 148.200 137.600 181.600 L 137.800 215.000 138.677 216.400 C 141.606 221.077,147.457 221.386,150.968 217.048 L 152.200 215.526 152.200 176.663 L 152.200 137.800 151.274 136.502 C 149.088 133.436,148.078 133.198,137.365 133.218 C 128.670 133.234,127.666 133.306,126.321 134.016 M277.200 133.725 C 271.744 136.294,271.167 143.488,276.158 146.730 C 277.655 147.702,278.242 147.814,282.800 147.998 L 287.800 148.200 288.000 181.400 L 288.200 214.600 289.261 216.404 C 292.233 221.460,299.573 221.145,302.215 215.849 C 303.021 214.234,303.102 138.930,302.300 137.495 C 301.388 135.863,299.817 134.342,298.451 133.767 C 296.693 133.028,278.756 132.992,277.200 133.725 M342.454 134.046 C 338.728 136.230,337.544 139.858,339.302 143.697 C 340.790 146.947,343.075 148.000,348.646 148.000 C 350.895 148.000,353.019 148.109,353.367 148.243 C 353.937 148.461,354.000 151.757,354.000 181.417 C 354.000 216.184,353.973 215.680,355.915 217.715 C 359.392 221.360,364.562 220.836,367.529 216.538 L 368.400 215.277 368.400 176.602 L 368.400 137.928 367.300 136.372 C 365.228 133.441,364.137 133.196,353.304 133.228 C 344.594 133.254,343.688 133.323,342.454 134.046 M67.766 147.405 C 76.778 150.139,77.725 153.145,77.535 178.400 L 77.400 196.200 76.346 198.448 C 74.548 202.282,72.516 204.083,67.881 205.949 C 62.647 208.057,55.154 204.414,52.533 198.486 L 51.579 196.329 51.689 176.265 C 51.799 156.367,51.807 156.185,52.700 154.400 C 55.591 148.615,61.979 145.650,67.766 147.405 M216.954 147.250 C 221.074 148.377,224.106 150.718,225.936 154.184 L 227.000 156.200 227.000 176.600 L 227.000 197.000 226.059 198.894 C 221.173 208.725,207.350 208.717,202.520 198.881 L 201.400 196.600 201.400 176.600 C 201.400 154.634,201.281 155.796,203.898 152.200 C 206.798 148.216,212.534 146.042,216.954 147.250 M133.400 236.667 C 124.486 237.760,115.823 244.007,111.595 252.389 C 108.938 257.659,108.828 258.817,108.828 281.800 C 108.828 305.340,108.914 306.149,112.005 311.949 C 124.084 334.612,156.805 331.302,164.884 306.600 C 166.323 302.200,166.318 260.861,164.878 256.800 C 161.519 247.329,156.242 241.777,147.000 237.988 C 144.121 236.808,137.498 236.164,133.400 236.667 M55.200 239.938 C 49.313 241.039,47.445 248.482,51.971 252.800 C 53.319 254.086,54.689 254.399,59.400 254.499 L 64.200 254.600 64.400 287.400 C 64.510 305.440,64.751 320.560,64.936 321.000 C 65.813 323.086,66.267 323.868,67.082 324.700 C 67.567 325.195,68.152 325.600,68.382 325.600 C 68.612 325.600,68.800 325.780,68.800 326.000 C 68.800 326.220,69.152 326.400,69.581 326.400 C 70.011 326.400,70.826 326.611,71.392 326.869 C 72.180 327.228,72.532 327.228,72.891 326.869 C 73.149 326.611,73.772 326.400,74.275 326.400 C 75.770 326.400,78.271 324.039,79.070 321.873 C 79.705 320.150,79.799 247.334,79.169 245.064 C 78.678 243.294,77.129 241.407,75.400 240.469 C 74.126 239.778,58.282 239.362,55.200 239.938 M205.218 239.875 C 203.971 240.044,202.060 241.092,201.000 242.187 C 198.995 244.258,198.827 249.218,200.685 251.513 C 202.684 253.983,203.778 254.361,209.292 254.488 L 214.200 254.600 214.302 287.582 C 214.368 308.768,214.547 320.707,214.802 320.962 C 215.021 321.181,215.200 321.689,215.200 322.091 C 215.200 323.084,218.581 326.400,219.595 326.400 C 220.044 326.400,220.768 326.623,221.205 326.896 C 221.838 327.291,222.162 327.291,222.795 326.896 C 223.232 326.623,223.975 326.400,224.447 326.400 C 224.934 326.400,226.104 325.601,227.153 324.553 L 229.000 322.705 229.117 284.453 C 229.253 239.818,229.514 242.754,225.200 240.378 C 224.196 239.825,208.485 239.429,205.218 239.875 M143.102 253.502 C 145.621 254.736,148.095 257.286,149.319 259.912 C 150.190 261.778,150.200 262.028,150.200 281.800 L 150.200 301.800 149.015 304.141 C 144.123 313.804,130.800 313.838,125.665 304.200 L 124.600 302.200 124.482 282.639 C 124.345 259.852,124.292 260.258,127.872 256.391 C 131.887 252.055,137.840 250.926,143.102 253.502 M207.297 344.379 C 197.732 346.969,190.487 353.541,187.209 362.600 C 187.050 363.040,186.685 364.030,186.398 364.800 C 186.023 365.806,185.836 369.690,185.734 378.600 C 185.656 385.420,185.549 393.025,185.496 395.501 L 185.400 400.001 193.275 400.001 L 201.149 400.000 201.275 384.500 C 201.420 366.508,201.420 366.507,205.454 362.820 C 212.008 356.831,222.088 358.692,226.017 366.617 L 227.000 368.600 227.118 383.700 L 227.236 398.800 228.794 398.800 C 229.652 398.800,230.464 398.620,230.600 398.400 C 230.736 398.180,231.816 398.000,233.000 398.000 C 234.184 398.000,235.264 397.820,235.400 397.600 C 235.536 397.380,236.436 397.200,237.400 397.200 C 238.364 397.200,239.264 397.020,239.400 396.800 C 239.536 396.580,240.402 396.400,241.324 396.400 L 243.000 396.401 242.876 382.104 C 242.765 369.302,242.668 367.494,241.951 364.816 C 237.956 349.908,221.882 340.429,207.297 344.379 M126.209 346.124 C 121.093 349.203,121.144 356.594,126.302 359.500 C 126.870 359.820,128.881 360.002,131.895 360.006 C 134.483 360.009,136.823 360.154,137.095 360.327 C 137.471 360.566,137.615 364.288,137.695 375.821 L 137.800 391.000 138.700 390.875 C 139.195 390.806,139.600 390.921,139.600 391.131 C 139.600 391.341,140.230 391.622,141.000 391.756 C 141.770 391.890,143.030 392.110,143.800 392.244 C 144.570 392.378,145.200 392.648,145.200 392.844 C 145.200 393.040,145.830 393.200,146.600 393.200 C 147.370 393.200,148.000 393.361,148.000 393.558 C 148.000 394.089,151.189 394.296,151.857 393.808 C 152.349 393.448,152.416 390.221,152.317 371.793 L 152.200 350.200 151.231 348.769 C 149.120 345.650,148.885 345.597,137.306 345.624 C 130.080 345.640,126.763 345.789,126.209 346.124 " stroke="none" fill="#40e2ab" fill-rule="evenodd"></path><path id="path1" d="M131.900 0.432 C 131.515 0.656,131.200 0.743,131.200 0.624 C 131.200 0.423,130.532 0.927,128.846 2.400 C 127.945 3.187,125.836 6.000,126.147 6.000 C 126.280 6.000,126.032 6.585,125.596 7.300 C 124.665 8.826,124.440 14.680,125.280 15.520 C 125.544 15.784,125.632 16.000,125.475 16.000 C 125.318 16.000,125.471 16.675,125.815 17.500 C 126.520 19.191,128.681 21.600,129.492 21.600 C 129.786 21.600,130.966 22.084,132.113 22.676 C 137.799 25.606,145.363 22.923,148.185 16.975 C 148.535 16.237,148.997 15.526,149.211 15.393 C 150.127 14.827,149.442 14.609,147.151 14.738 C 139.878 15.148,133.961 9.227,134.459 2.038 C 134.610 -0.144,133.782 -0.664,131.900 0.432 M147.681 5.338 C 148.048 5.705,148.462 6.364,148.601 6.802 C 148.740 7.241,149.018 7.600,149.219 7.600 C 149.757 7.600,148.259 5.086,147.588 4.863 C 147.164 4.721,147.189 4.846,147.681 5.338 M149.655 11.888 C 149.709 12.803,149.885 13.471,150.045 13.372 C 150.409 13.147,150.262 10.929,149.857 10.523 C 149.692 10.359,149.601 10.973,149.655 11.888 M209.515 23.528 C 209.138 23.678,211.236 23.800,214.177 23.800 C 217.118 23.800,219.316 23.668,219.062 23.506 C 218.486 23.140,210.447 23.158,209.515 23.528 M206.000 24.400 C 205.236 24.894,206.058 24.894,207.600 24.400 L 208.600 24.080 207.600 24.046 C 207.050 24.027,206.330 24.187,206.000 24.400 M220.033 24.143 C 220.476 24.522,222.817 24.751,222.596 24.394 C 222.462 24.177,221.793 24.000,221.110 24.000 C 220.426 24.000,219.942 24.064,220.033 24.143 M223.800 25.200 C 224.901 25.673,225.292 25.673,225.000 25.200 C 224.864 24.980,224.358 24.813,223.876 24.828 C 223.031 24.855,223.029 24.869,223.800 25.200 M200.800 26.465 C 198.460 27.816,198.460 28.155,200.800 26.995 C 203.327 25.742,203.546 25.589,202.767 25.628 C 202.455 25.644,201.570 26.021,200.800 26.465 M229.594 27.982 C 230.141 28.402,230.668 28.666,230.765 28.569 C 230.991 28.342,229.529 27.227,229.000 27.222 C 228.780 27.220,229.047 27.561,229.594 27.982 M197.400 28.391 C 189.576 35.251,186.425 40.571,185.242 48.916 C 184.655 53.058,184.651 85.310,185.238 89.484 C 188.055 109.541,209.070 120.955,227.015 112.175 C 228.225 111.583,229.319 110.930,229.447 110.725 C 229.574 110.519,228.445 110.968,226.939 111.723 C 211.047 119.685,191.508 110.940,186.447 93.600 C 185.196 89.311,184.590 57.031,185.617 49.329 C 186.734 40.952,190.076 35.024,196.800 29.496 C 197.790 28.682,198.420 28.021,198.200 28.028 C 197.980 28.035,197.620 28.198,197.400 28.391 M277.029 28.609 C 276.605 28.929,276.338 29.271,276.435 29.369 C 276.532 29.466,277.059 29.202,277.606 28.782 C 278.153 28.361,278.420 28.020,278.200 28.022 C 277.980 28.024,277.453 28.288,277.029 28.609 M233.641 31.125 C 235.093 32.466,237.053 34.746,237.995 36.193 C 238.938 37.640,239.790 38.744,239.888 38.645 C 240.481 38.053,233.761 30.125,231.801 29.106 C 231.361 28.876,232.188 29.785,233.641 31.125 M273.627 31.700 C 269.874 35.388,266.307 41.607,265.774 45.390 C 265.680 46.055,265.957 45.520,266.390 44.200 C 267.971 39.380,270.154 35.787,273.743 32.100 C 276.695 29.068,276.608 28.770,273.627 31.700 M133.000 40.841 C 121.982 46.392,123.277 60.583,135.076 63.607 C 141.521 65.259,148.699 59.709,149.392 52.538 L 149.580 50.600 149.199 52.371 C 148.612 55.096,146.486 55.569,142.139 53.943 C 135.273 51.374,131.168 40.000,137.107 40.000 C 138.308 40.000,142.000 40.974,142.000 41.291 C 142.000 41.461,142.315 41.604,142.700 41.609 C 144.035 41.627,147.465 45.632,148.351 48.209 C 149.008 50.119,149.175 50.359,149.183 49.400 C 149.235 42.941,139.281 37.677,133.000 40.841 M213.300 39.887 C 213.905 39.978,214.895 39.978,215.500 39.887 C 216.105 39.795,215.610 39.720,214.400 39.720 C 213.190 39.720,212.695 39.795,213.300 39.887 M292.900 39.887 C 293.505 39.978,294.495 39.978,295.100 39.887 C 295.705 39.795,295.210 39.720,294.000 39.720 C 292.790 39.720,292.295 39.795,292.900 39.887 M209.800 40.400 C 209.029 40.731,209.031 40.745,209.876 40.772 C 210.358 40.787,210.864 40.620,211.000 40.400 C 211.292 39.927,210.901 39.927,209.800 40.400 M219.463 41.215 C 221.731 42.315,223.738 44.087,224.737 45.873 C 224.958 46.269,225.248 46.485,225.381 46.352 C 226.216 45.517,219.340 39.974,217.513 40.010 C 217.231 40.016,218.108 40.558,219.463 41.215 M289.600 40.400 C 289.067 40.745,289.067 40.788,289.600 40.788 C 289.930 40.788,290.470 40.613,290.800 40.400 C 291.333 40.055,291.333 40.012,290.800 40.012 C 290.470 40.012,289.930 40.187,289.600 40.400 M287.708 41.324 C 285.881 42.339,283.435 45.063,282.434 47.197 L 281.400 49.400 281.289 68.656 C 281.181 87.326,281.203 87.979,282.010 90.136 C 283.489 94.088,288.467 98.453,291.400 98.369 C 291.840 98.357,291.448 98.111,290.530 97.824 C 286.236 96.482,283.612 93.705,282.040 88.840 C 281.162 86.127,281.456 50.981,282.377 48.462 C 283.311 45.908,284.703 44.004,286.712 42.534 C 289.195 40.716,289.526 40.314,287.708 41.324 M205.591 43.056 C 204.704 43.857,204.047 44.581,204.131 44.664 C 204.215 44.748,205.052 44.093,205.991 43.208 C 208.121 41.202,207.784 41.074,205.591 43.056 M302.417 43.249 C 304.179 44.994,305.509 47.278,306.349 50.000 L 306.782 51.400 306.557 49.819 C 306.167 47.062,303.584 43.062,301.462 41.926 C 301.007 41.683,301.437 42.278,302.417 43.249 M241.628 43.476 C 241.718 44.515,242.344 45.396,242.372 44.524 C 242.387 44.042,242.220 43.536,242.000 43.400 C 241.780 43.264,241.613 43.298,241.628 43.476 M203.112 46.100 C 201.674 48.332,201.600 49.462,201.600 69.113 C 201.600 89.099,201.695 90.444,203.246 92.423 C 203.844 93.187,203.793 92.919,203.010 91.200 L 202.008 89.000 202.008 69.200 L 202.008 49.400 202.986 47.300 C 204.021 45.075,204.070 44.613,203.112 46.100 M242.680 47.491 C 242.990 49.500,243.200 49.661,243.200 47.890 C 243.200 47.097,243.031 46.343,242.824 46.215 C 242.599 46.076,242.541 46.591,242.680 47.491 M265.057 48.300 C 264.734 50.253,264.817 89.038,265.147 90.578 C 265.286 91.226,265.400 81.641,265.400 69.278 C 265.400 56.915,265.379 46.800,265.352 46.800 C 265.326 46.800,265.193 47.475,265.057 48.300 M226.600 69.201 C 226.600 80.447,226.717 89.232,226.860 88.724 C 227.003 88.216,227.120 79.430,227.120 69.200 C 227.120 58.970,227.003 50.185,226.860 49.677 C 226.717 49.169,226.600 57.955,226.600 69.201 M323.280 52.080 C 322.921 52.439,322.800 57.179,322.800 70.947 C 322.800 81.059,322.935 89.199,323.100 89.034 C 323.310 88.824,323.986 51.597,323.780 51.600 C 323.769 51.600,323.544 51.816,323.280 52.080 M243.384 69.200 C 243.384 78.770,243.436 82.685,243.500 77.900 C 243.563 73.115,243.563 65.285,243.500 60.500 C 243.436 55.715,243.384 59.630,243.384 69.200 M306.983 69.000 C 306.983 78.240,307.036 81.963,307.100 77.273 C 307.164 72.583,307.164 65.023,307.099 60.473 C 307.035 55.923,306.983 59.760,306.983 69.000 M133.198 80.142 C 119.983 84.460,117.323 101.835,128.755 109.171 C 139.324 115.953,153.345 108.320,153.345 95.784 C 153.345 93.501,153.138 91.582,152.819 90.910 C 152.530 90.299,152.098 89.350,151.859 88.800 C 148.968 82.143,139.920 77.945,133.198 80.142 M140.809 80.557 C 148.165 82.317,152.800 88.196,152.800 95.766 C 152.800 101.566,151.918 102.546,146.683 102.565 C 139.235 102.593,133.373 98.397,131.189 91.477 C 128.445 82.785,132.219 78.502,140.809 80.557 M306.208 88.500 C 305.840 90.369,304.444 93.035,303.096 94.446 C 302.455 95.116,302.017 95.750,302.121 95.854 C 302.373 96.107,304.939 92.918,305.716 91.386 C 306.369 90.098,307.034 87.200,306.676 87.200 C 306.559 87.200,306.348 87.785,306.208 88.500 M242.867 89.867 C 242.830 90.564,242.684 91.464,242.541 91.867 C 242.343 92.428,242.397 92.495,242.768 92.153 C 243.052 91.892,243.188 91.058,243.095 90.153 C 242.952 88.773,242.927 88.742,242.867 89.867 M225.409 91.325 C 224.424 93.401,222.213 95.808,220.581 96.582 C 219.786 96.960,219.230 97.364,219.346 97.480 C 219.706 97.839,222.249 96.064,223.739 94.415 C 225.236 92.758,226.591 90.458,226.264 90.130 C 226.156 90.023,225.771 90.561,225.409 91.325 M322.229 92.229 C 322.081 92.815,322.051 93.384,322.161 93.494 C 322.271 93.604,322.481 93.215,322.629 92.629 C 322.776 92.042,322.806 91.473,322.696 91.363 C 322.586 91.253,322.376 91.642,322.229 92.229 M265.634 92.400 C 265.646 92.730,265.811 93.360,266.000 93.800 L 266.344 94.600 266.366 93.800 C 266.378 93.360,266.213 92.730,266.000 92.400 C 265.655 91.867,265.615 91.867,265.634 92.400 M242.046 93.467 C 242.021 93.724,241.884 94.264,241.741 94.667 C 241.540 95.236,241.594 95.297,241.979 94.942 C 242.252 94.691,242.389 94.151,242.284 93.742 C 242.179 93.334,242.072 93.210,242.046 93.467 M204.996 94.796 C 205.626 95.454,206.219 95.914,206.313 95.820 C 206.522 95.612,204.556 93.600,204.143 93.600 C 203.982 93.600,204.366 94.138,204.996 94.796 M266.431 95.200 C 266.367 96.845,269.689 102.430,272.581 105.542 C 274.506 107.614,277.965 110.569,278.195 110.339 C 278.284 110.249,277.390 109.427,276.208 108.513 C 272.403 105.568,269.240 101.191,266.877 95.600 C 266.644 95.050,266.444 94.870,266.431 95.200 M207.600 96.767 C 208.563 97.552,209.200 97.808,209.200 97.410 C 209.200 97.306,208.615 96.935,207.900 96.586 L 206.600 95.952 207.600 96.767 M240.237 98.311 C 238.603 101.655,235.940 105.227,233.309 107.605 C 232.039 108.753,231.540 109.325,232.200 108.877 C 233.895 107.726,237.276 104.127,238.660 102.000 C 240.177 99.669,241.780 96.447,241.542 96.209 C 241.440 96.106,240.852 97.052,240.237 98.311 M300.000 96.800 C 299.450 97.230,299.180 97.582,299.400 97.582 C 299.620 97.582,300.250 97.230,300.800 96.800 C 301.350 96.370,301.620 96.018,301.400 96.018 C 301.180 96.018,300.550 96.370,300.000 96.800 M210.000 98.000 C 210.330 98.213,211.050 98.373,211.600 98.354 L 212.600 98.320 211.600 98.000 C 210.058 97.506,209.236 97.506,210.000 98.000 M217.000 98.000 L 216.200 98.344 217.000 98.366 C 217.440 98.378,218.070 98.213,218.400 98.000 C 219.195 97.486,218.196 97.486,217.000 98.000 M296.800 98.000 L 295.800 98.320 296.800 98.354 C 297.350 98.373,298.070 98.213,298.400 98.000 C 299.164 97.506,298.342 97.506,296.800 98.000 M213.505 98.683 C 214.002 98.779,214.722 98.775,215.105 98.675 C 215.487 98.575,215.080 98.496,214.200 98.501 C 213.320 98.505,213.007 98.587,213.505 98.683 M293.300 98.676 C 293.685 98.776,294.315 98.776,294.700 98.676 C 295.085 98.575,294.770 98.493,294.000 98.493 C 293.230 98.493,292.915 98.575,293.300 98.676 M319.741 99.043 C 319.325 100.173,316.627 104.021,315.227 105.478 C 314.552 106.181,314.006 106.901,314.013 107.078 C 314.021 107.255,314.843 106.500,315.841 105.400 C 317.864 103.170,320.614 98.881,320.253 98.519 C 320.124 98.391,319.894 98.626,319.741 99.043 M312.802 107.797 C 312.521 108.136,311.416 108.981,310.346 109.674 C 309.276 110.367,308.478 111.011,308.572 111.106 C 308.667 111.200,309.521 110.724,310.472 110.048 C 313.195 108.111,313.757 107.623,313.528 107.394 C 313.410 107.277,313.084 107.458,312.802 107.797 M278.944 110.710 C 280.813 113.733,293.273 116.039,299.800 114.570 C 304.244 113.569,304.400 113.523,304.630 113.152 C 304.749 112.959,305.197 112.800,305.624 112.800 C 306.051 112.800,306.400 112.623,306.400 112.406 C 306.400 112.189,305.472 112.377,304.338 112.824 C 296.804 115.794,287.445 115.195,280.452 111.295 C 279.490 110.759,278.812 110.496,278.944 110.710 M62.900 131.091 C 63.725 131.178,65.075 131.178,65.900 131.091 C 66.725 131.005,66.050 130.934,64.400 130.934 C 62.750 130.934,62.075 131.005,62.900 131.091 M212.711 131.093 C 213.651 131.178,215.091 131.177,215.911 131.091 C 216.730 131.005,215.960 130.936,214.200 130.937 C 212.440 130.939,211.770 131.009,212.711 131.093 M56.258 131.852 C 55.190 132.180,54.411 132.544,54.528 132.661 C 54.645 132.778,55.339 132.682,56.070 132.448 C 56.802 132.215,57.940 131.852,58.600 131.643 C 59.387 131.394,59.525 131.262,59.000 131.259 C 58.560 131.257,57.326 131.524,56.258 131.852 M70.000 131.600 C 70.550 131.776,71.360 131.926,71.800 131.932 L 72.600 131.944 71.800 131.600 C 71.360 131.411,70.550 131.262,70.000 131.268 L 69.000 131.280 70.000 131.600 M207.000 131.600 L 206.200 131.944 207.000 131.932 C 207.440 131.926,208.250 131.776,208.800 131.600 L 209.800 131.280 208.800 131.268 C 208.250 131.262,207.440 131.411,207.000 131.600 M219.600 131.600 C 220.150 131.776,220.960 131.926,221.400 131.932 L 222.200 131.944 221.400 131.600 C 220.960 131.411,220.150 131.262,219.600 131.268 L 218.600 131.280 219.600 131.600 M73.600 132.474 C 74.150 132.736,75.410 133.310,76.400 133.749 C 80.877 135.734,85.484 139.630,88.211 143.737 C 89.042 144.988,89.806 145.928,89.909 145.824 C 90.311 145.423,86.277 140.353,83.719 138.044 C 81.179 135.751,75.952 132.742,73.600 132.219 L 72.600 131.996 73.600 132.474 M201.495 133.741 C 197.030 135.982,193.810 138.563,191.330 141.891 C 190.711 142.721,190.114 143.490,190.002 143.600 C 189.132 144.460,186.787 149.448,186.053 152.000 C 184.086 158.836,184.246 195.789,186.270 202.000 C 188.450 208.691,193.930 215.679,199.100 218.361 C 200.671 219.176,200.072 218.530,198.061 217.239 C 191.602 213.095,186.703 205.001,185.610 196.671 C 185.055 192.439,185.077 160.508,185.638 156.516 C 187.079 146.257,193.236 137.823,202.183 133.852 C 203.292 133.360,204.650 132.754,205.200 132.506 C 205.783 132.242,205.943 132.043,205.582 132.027 C 205.242 132.012,203.403 132.783,201.495 133.741 M222.800 132.400 C 223.130 132.613,223.670 132.788,224.000 132.788 C 224.533 132.788,224.533 132.745,224.000 132.400 C 223.670 132.187,223.130 132.012,222.800 132.012 C 222.267 132.012,222.267 132.055,222.800 132.400 M126.400 133.038 C 119.757 135.915,119.821 145.393,126.502 148.185 C 127.525 148.612,129.321 148.800,132.387 148.800 L 136.800 148.800 136.802 181.300 C 136.805 217.188,136.729 216.085,139.352 218.600 C 143.449 222.528,149.419 221.588,152.293 216.562 L 153.187 215.000 153.193 176.684 C 153.200 139.437,153.178 138.325,152.418 136.834 C 151.431 134.900,149.606 133.350,147.688 132.818 C 145.213 132.130,128.086 132.307,126.400 133.038 M276.583 133.152 C 271.619 135.407,270.339 142.251,274.148 146.174 C 276.212 148.299,277.872 148.800,282.849 148.800 L 287.200 148.800 287.200 181.023 C 287.200 215.836,287.199 215.825,289.352 218.175 C 293.403 222.598,300.148 221.743,302.847 216.464 L 303.800 214.600 303.915 177.400 C 304.043 135.694,304.173 137.735,301.207 134.769 C 298.872 132.434,298.662 132.398,287.450 132.409 C 279.342 132.416,278.000 132.508,276.583 133.152 M343.165 132.770 C 337.376 134.594,335.790 142.542,340.393 146.662 C 342.282 148.353,343.752 148.736,348.489 148.770 L 352.778 148.800 352.889 181.700 C 352.994 212.829,353.040 214.680,353.743 216.095 C 356.961 222.569,365.734 222.634,368.755 216.207 C 369.918 213.733,370.105 140.507,368.956 137.756 C 366.921 132.886,366.157 132.615,354.200 132.522 C 348.700 132.479,343.734 132.590,343.165 132.770 M51.032 133.983 C 48.089 135.531,44.347 138.431,42.708 140.432 C 41.989 141.311,40.995 142.519,40.500 143.115 C 40.006 143.712,39.601 144.365,39.600 144.567 C 39.600 145.007,39.453 145.163,41.853 142.177 C 44.892 138.395,47.857 135.980,51.976 133.931 C 53.199 133.323,53.993 132.819,53.741 132.813 C 53.488 132.806,52.269 133.332,51.032 133.983 M149.267 134.207 C 152.841 136.697,152.586 133.604,152.706 175.935 C 152.777 200.889,152.674 213.782,152.396 214.817 C 150.738 220.973,142.446 222.299,138.794 216.992 L 137.605 215.263 137.502 181.931 L 137.400 148.600 132.600 148.375 C 127.453 148.133,126.901 148.000,124.896 146.518 C 120.264 143.092,121.699 134.563,127.107 133.371 C 127.708 133.238,128.380 133.063,128.600 132.980 C 128.820 132.898,133.170 132.869,138.267 132.915 L 147.533 133.000 149.267 134.207 M227.000 134.048 C 230.003 135.588,231.473 136.679,234.998 139.980 C 236.537 141.421,237.438 142.150,237.001 141.600 C 234.646 138.635,229.552 134.608,226.592 133.371 C 224.267 132.399,224.482 132.756,227.000 134.048 M299.000 133.662 C 300.634 134.563,301.841 135.923,302.581 137.693 C 303.392 139.633,303.530 212.607,302.728 215.283 C 300.858 221.524,291.679 222.078,288.748 216.126 L 287.800 214.200 287.691 181.300 L 287.582 148.400 283.537 148.400 C 277.594 148.400,274.900 147.229,273.231 143.920 C 271.403 140.296,273.919 134.155,277.558 133.358 C 278.131 133.233,278.780 133.063,279.000 132.980 C 280.411 132.452,297.886 133.047,299.000 133.662 M363.311 133.224 C 365.051 133.707,367.378 135.610,368.220 137.240 C 368.715 138.195,368.800 144.004,368.800 176.702 L 368.800 215.043 367.645 216.864 C 364.632 221.615,358.175 221.534,354.728 216.701 L 353.800 215.400 353.600 182.000 L 353.400 148.600 348.800 148.384 C 343.109 148.116,339.200 146.390,339.200 144.145 C 339.200 143.845,339.020 143.600,338.800 143.600 C 336.948 143.600,338.755 136.642,341.157 134.522 C 342.976 132.917,358.855 131.987,363.311 133.224 M238.674 144.621 C 239.234 145.622,239.774 146.359,239.875 146.259 C 240.063 146.071,238.123 142.800,237.823 142.800 C 237.731 142.800,238.114 143.619,238.674 144.621 M38.061 147.307 C 35.295 153.469,35.400 152.313,35.400 176.600 C 35.400 199.839,35.357 199.220,37.315 204.352 C 38.959 208.665,43.663 214.667,47.423 217.252 C 49.211 218.481,54.875 221.204,55.579 221.172 C 55.920 221.156,55.516 220.893,54.680 220.586 C 46.156 217.458,39.709 210.572,36.714 201.400 C 35.807 198.621,35.800 198.432,35.800 176.600 C 35.800 152.259,35.744 152.848,38.617 147.100 C 39.140 146.055,39.439 145.203,39.283 145.207 C 39.128 145.211,38.577 146.156,38.061 147.307 M61.000 147.549 C 57.426 148.494,53.771 151.828,52.457 155.339 C 51.590 157.657,51.117 194.441,51.928 196.485 C 52.078 196.862,52.200 188.042,52.200 176.885 L 52.200 156.600 53.140 154.692 C 56.909 147.038,67.780 145.211,73.306 151.303 C 73.914 151.973,74.504 152.430,74.616 152.317 C 74.948 151.985,71.779 149.308,69.951 148.375 C 68.111 147.436,63.153 146.979,61.000 147.549 M210.000 147.836 C 206.748 149.002,204.278 151.281,202.638 154.630 L 201.600 156.750 201.606 176.675 C 201.609 187.634,201.744 196.808,201.906 197.062 C 202.068 197.317,202.149 188.443,202.086 177.344 L 201.972 157.163 203.051 154.758 C 206.478 147.122,216.600 145.239,222.841 151.077 C 223.919 152.085,224.800 153.155,224.800 153.455 C 224.800 153.755,224.986 154.000,225.214 154.000 C 226.606 154.000,222.376 149.657,219.779 148.420 C 217.194 147.188,212.576 146.912,210.000 147.836 M91.628 150.276 C 91.718 151.315,92.344 152.196,92.372 151.324 C 92.387 150.842,92.220 150.336,92.000 150.200 C 91.780 150.064,91.613 150.098,91.628 150.276 M241.840 151.466 C 242.208 152.999,242.400 153.144,242.400 151.890 C 242.400 151.317,242.213 150.732,241.984 150.590 C 241.711 150.421,241.662 150.723,241.840 151.466 M74.800 152.939 C 74.800 153.366,76.114 155.619,76.271 155.462 C 76.477 155.256,75.295 152.800,74.990 152.800 C 74.885 152.800,74.800 152.862,74.800 152.939 M92.663 154.080 C 93.000 155.849,93.200 156.001,93.200 154.490 C 93.200 153.807,93.023 153.138,92.806 153.004 C 92.560 152.852,92.506 153.255,92.663 154.080 M242.650 154.800 C 242.975 157.041,243.202 157.360,243.194 155.567 C 243.191 154.815,243.008 153.930,242.788 153.600 C 242.509 153.181,242.467 153.542,242.650 154.800 M76.434 156.800 C 76.422 157.350,76.587 158.070,76.800 158.400 C 77.309 159.187,77.309 157.784,76.800 156.600 C 76.485 155.867,76.454 155.884,76.434 156.800 M226.600 176.600 C 226.600 187.736,226.717 196.432,226.860 195.924 C 227.003 195.416,227.120 186.720,227.120 176.600 C 227.120 166.480,227.003 157.784,226.860 157.276 C 226.717 156.768,226.600 165.464,226.600 176.600 M93.292 176.600 C 93.292 188.174,93.431 195.926,93.623 195.000 C 94.054 192.915,94.054 160.285,93.623 158.200 C 93.431 157.274,93.292 165.026,93.292 176.600 M243.384 176.800 C 243.384 186.370,243.436 190.285,243.500 185.500 C 243.563 180.715,243.563 172.885,243.500 168.100 C 243.436 163.315,243.384 167.230,243.384 176.800 M76.649 195.415 C 76.512 195.773,76.416 196.456,76.436 196.933 C 76.462 197.547,76.585 197.408,76.859 196.456 C 77.257 195.072,77.094 194.258,76.649 195.415 M242.862 197.200 C 242.822 197.750,242.677 198.650,242.540 199.200 C 242.349 199.968,242.403 200.096,242.773 199.753 C 243.051 199.494,243.187 198.650,243.095 197.753 C 243.004 196.874,242.903 196.634,242.862 197.200 M52.418 197.720 C 52.225 201.205,59.877 206.529,64.800 206.335 C 66.115 206.283,66.127 206.271,65.000 206.133 C 59.353 205.440,55.401 203.022,53.248 198.941 C 52.801 198.094,52.427 197.544,52.418 197.720 M92.854 198.200 C 92.819 198.640,92.689 199.450,92.567 200.000 C 92.375 200.863,92.407 200.903,92.798 200.290 C 93.047 199.899,93.177 199.089,93.086 198.490 C 92.978 197.779,92.897 197.679,92.854 198.200 M225.419 198.900 C 221.255 207.648,208.922 208.127,203.607 199.747 C 202.943 198.700,202.400 198.023,202.400 198.243 C 202.400 200.462,207.280 204.673,211.201 205.837 C 216.579 207.434,224.213 203.755,225.968 198.720 C 226.498 197.200,226.178 197.305,225.419 198.900 M73.752 201.505 C 72.117 203.384,69.335 205.194,68.062 205.206 C 67.698 205.209,67.130 205.400,66.800 205.630 C 65.914 206.248,68.708 205.653,70.146 204.918 C 71.507 204.222,74.691 201.352,75.240 200.325 C 75.835 199.213,75.543 199.444,73.752 201.505 M242.046 201.067 C 242.021 201.324,241.884 201.864,241.741 202.267 C 241.540 202.836,241.594 202.897,241.979 202.542 C 242.252 202.291,242.389 201.751,242.284 201.342 C 242.179 200.934,242.072 200.810,242.046 201.067 M92.046 201.467 C 92.021 201.724,91.884 202.264,91.741 202.667 C 91.540 203.236,91.594 203.297,91.979 202.942 C 92.252 202.691,92.389 202.151,92.284 201.742 C 92.179 201.334,92.072 201.210,92.046 201.467 M89.499 207.632 C 88.895 208.714,88.483 209.600,88.583 209.600 C 88.857 209.600,90.921 205.988,90.747 205.814 C 90.665 205.732,90.103 206.550,89.499 207.632 M238.245 209.388 C 237.880 209.944,237.722 210.400,237.895 210.400 C 238.284 210.400,239.319 208.786,239.082 208.549 C 238.986 208.453,238.610 208.831,238.245 209.388 M86.602 211.824 C 85.244 213.481,82.140 216.267,79.590 218.119 C 78.144 219.168,79.528 218.448,81.400 217.177 C 83.063 216.048,86.727 212.464,87.818 210.900 C 88.889 209.364,88.170 209.910,86.602 211.824 M235.120 213.173 C 232.707 215.681,228.903 218.463,226.536 219.453 C 225.754 219.779,225.205 220.138,225.317 220.250 C 226.205 221.138,235.831 214.077,237.244 211.500 C 237.839 210.415,237.570 210.628,235.120 213.173 M74.400 220.420 C 73.410 220.825,72.870 221.162,73.200 221.168 C 73.530 221.174,74.520 220.838,75.400 220.422 C 77.443 219.455,76.761 219.453,74.400 220.420 M202.000 219.795 C 202.000 220.061,204.790 221.207,205.349 221.170 C 205.597 221.154,205.080 220.807,204.200 220.400 C 202.509 219.617,202.000 219.477,202.000 219.795 M223.200 220.800 C 222.667 221.145,222.667 221.188,223.200 221.188 C 223.530 221.188,224.070 221.013,224.400 220.800 C 224.933 220.455,224.933 220.412,224.400 220.412 C 224.070 220.412,223.530 220.587,223.200 220.800 M56.800 221.600 C 57.130 221.813,57.760 221.978,58.200 221.966 L 59.000 221.944 58.200 221.600 C 57.004 221.086,56.005 221.086,56.800 221.600 M70.600 221.600 L 69.800 221.944 70.600 221.966 C 71.040 221.978,71.670 221.813,72.000 221.600 C 72.795 221.086,71.796 221.086,70.600 221.600 M206.800 221.600 C 207.130 221.813,207.760 221.978,208.200 221.966 L 209.000 221.944 208.200 221.600 C 207.004 221.086,206.005 221.086,206.800 221.600 M220.200 221.600 L 219.400 221.944 220.200 221.966 C 220.640 221.978,221.270 221.813,221.600 221.600 C 222.395 221.086,221.396 221.086,220.200 221.600 M61.000 222.425 C 62.004 222.825,66.667 222.821,68.000 222.418 C 68.592 222.240,67.204 222.115,64.600 222.111 C 62.017 222.108,60.530 222.238,61.000 222.425 M210.600 222.418 C 211.040 222.597,212.660 222.744,214.200 222.744 C 215.740 222.744,217.360 222.597,217.800 222.418 C 218.283 222.221,216.856 222.091,214.200 222.091 C 211.544 222.091,210.117 222.221,210.600 222.418 M133.400 235.985 C 132.740 236.157,131.157 236.531,129.881 236.817 C 128.606 237.103,127.470 237.486,127.358 237.668 C 127.081 238.116,127.293 238.091,129.286 237.440 C 140.314 233.839,154.041 238.651,161.121 248.600 C 161.590 249.260,161.980 249.616,161.987 249.392 C 162.024 248.202,154.173 240.405,152.933 240.401 C 152.677 240.401,152.407 240.258,152.333 240.085 C 151.328 237.713,137.917 234.808,133.400 235.985 M124.893 238.580 C 123.647 239.268,123.256 239.706,124.212 239.343 C 125.703 238.775,126.999 238.005,126.400 238.042 C 126.070 238.062,125.392 238.304,124.893 238.580 M53.423 239.619 C 46.898 242.874,46.731 251.453,53.133 254.498 C 54.635 255.212,55.879 255.413,59.500 255.527 L 64.000 255.669 64.000 288.789 L 64.000 321.910 65.300 323.832 C 68.787 328.989,75.472 328.878,79.209 323.600 L 80.200 322.200 80.308 284.272 C 80.434 239.971,80.670 242.119,75.400 239.642 C 72.759 238.401,55.900 238.383,53.423 239.619 M203.702 239.357 C 197.855 241.528,196.575 249.519,201.433 253.523 C 203.293 255.056,204.057 255.251,209.400 255.552 L 213.800 255.800 213.902 288.800 C 214.012 324.318,213.939 323.099,216.074 325.064 C 220.453 329.093,226.608 328.157,229.510 323.021 C 230.229 321.748,230.843 253.255,230.192 246.897 C 229.875 243.805,228.165 241.051,225.800 239.828 C 223.855 238.821,206.160 238.444,203.702 239.357 M73.523 239.668 C 76.083 240.306,77.801 241.506,78.779 243.338 C 80.076 245.768,80.067 321.029,78.769 323.158 C 76.956 326.132,71.278 328.545,70.200 326.800 C 70.064 326.580,69.621 326.400,69.216 326.400 C 68.349 326.400,65.718 323.881,65.059 322.419 C 64.731 321.690,64.543 311.950,64.400 288.200 L 64.200 255.000 59.129 254.774 C 54.412 254.564,53.944 254.470,52.443 253.430 C 46.998 249.656,48.713 241.103,55.200 239.680 C 57.798 239.111,71.251 239.102,73.523 239.668 M223.017 239.637 C 225.873 240.165,227.272 241.098,228.598 243.361 L 229.600 245.070 229.600 283.290 L 229.600 321.510 228.300 323.432 C 224.841 328.548,217.957 328.204,215.189 322.778 C 214.423 321.277,214.400 320.289,214.400 288.649 C 214.400 270.728,214.291 255.781,214.157 255.433 C 213.958 254.914,213.186 254.800,209.857 254.798 C 204.806 254.795,203.017 254.311,201.147 252.442 C 196.786 248.081,198.935 241.345,205.200 239.738 C 207.528 239.141,219.953 239.071,223.017 239.637 M121.305 240.525 C 120.593 241.006,120.008 241.530,120.005 241.688 C 120.001 241.926,122.558 240.375,123.156 239.777 C 123.669 239.265,122.428 239.766,121.305 240.525 M290.801 239.869 C 284.650 241.178,279.601 246.574,278.417 253.107 C 276.553 263.385,286.797 273.549,296.890 271.437 C 303.548 270.044,307.687 266.154,309.939 259.172 C 313.191 249.092,301.739 237.542,290.801 239.869 M117.000 244.123 C 114.636 246.578,112.252 249.585,112.484 249.818 C 112.575 249.908,113.341 249.075,114.187 247.966 C 115.032 246.857,116.632 245.061,117.741 243.975 C 118.850 242.889,119.587 242.010,119.379 242.023 C 119.171 242.035,118.100 242.980,117.000 244.123 M305.680 248.845 C 308.455 249.428,308.925 249.902,309.560 252.766 C 310.285 256.036,309.839 258.764,307.936 262.695 C 305.162 268.426,298.949 271.660,292.064 270.958 C 287.937 270.537,287.440 269.869,287.442 264.752 C 287.446 254.479,296.190 246.852,305.680 248.845 M163.137 252.300 C 166.121 258.278,166.401 260.814,166.392 281.773 C 166.384 299.800,166.202 302.776,164.833 307.197 C 164.313 308.875,164.298 309.077,164.730 308.580 C 165.113 308.141,165.750 305.918,166.368 302.869 C 166.956 299.970,166.955 263.623,166.367 260.731 C 165.466 256.301,163.080 250.015,162.294 250.004 C 162.126 250.002,162.505 251.035,163.137 252.300 M131.798 253.586 C 129.346 254.776,127.880 256.067,126.562 258.200 C 126.146 258.873,126.744 258.403,127.924 257.129 C 130.164 254.710,132.419 253.388,135.253 252.831 C 136.957 252.496,136.965 252.487,135.600 252.454 C 134.809 252.435,133.155 252.927,131.798 253.586 M138.033 252.544 C 138.125 252.624,139.010 252.806,140.000 252.950 C 141.258 253.133,141.619 253.091,141.200 252.812 C 140.660 252.453,137.632 252.197,138.033 252.544 M143.600 254.154 C 143.600 254.239,144.095 254.627,144.700 255.016 L 145.800 255.724 145.038 254.862 C 144.364 254.099,143.600 253.723,143.600 254.154 M109.467 255.867 C 109.320 256.013,109.215 256.598,109.234 257.167 C 109.268 258.181,109.275 258.179,109.621 257.020 C 109.985 255.803,109.931 255.402,109.467 255.867 M147.869 258.483 C 148.491 259.491,149.058 260.261,149.129 260.195 C 149.359 259.981,148.074 257.759,147.395 257.196 C 147.033 256.896,147.247 257.475,147.869 258.483 M108.667 258.667 C 108.520 258.813,108.420 259.668,108.444 260.567 L 108.488 262.200 108.836 260.425 C 109.189 258.624,109.147 258.186,108.667 258.667 M149.246 261.200 C 149.265 261.530,149.424 262.250,149.600 262.800 L 149.920 263.800 149.954 262.800 C 149.973 262.250,149.813 261.530,149.600 261.200 C 149.255 260.667,149.216 260.667,149.246 261.200 M124.650 262.850 C 124.321 264.497,124.404 299.930,124.740 301.124 C 124.883 301.632,125.000 292.947,125.000 281.824 C 125.000 270.701,124.978 261.600,124.950 261.600 C 124.922 261.600,124.788 262.163,124.650 262.850 M108.183 281.800 C 108.183 291.040,108.236 294.763,108.300 290.073 C 108.364 285.383,108.364 277.823,108.299 273.273 C 108.235 268.723,108.183 272.560,108.183 281.800 M289.332 288.571 C 279.744 293.035,279.764 305.535,289.366 310.244 C 299.164 315.048,309.830 304.817,305.178 295.078 C 302.092 288.618,295.258 285.812,289.332 288.571 M305.200 297.200 C 307.728 299.728,304.084 307.385,299.144 309.926 C 297.342 310.853,292.684 311.270,291.602 310.602 C 290.708 310.049,291.375 305.122,292.664 302.754 C 295.221 298.055,302.729 294.729,305.200 297.200 M149.488 301.160 C 149.010 303.385,147.529 305.971,145.878 307.463 C 145.026 308.233,144.420 308.954,144.532 309.065 C 145.422 309.956,150.195 302.484,149.911 300.644 C 149.814 300.018,149.705 300.151,149.488 301.160 M108.400 303.110 C 108.400 304.013,108.584 304.867,108.809 305.006 C 109.079 305.173,109.128 304.669,108.954 303.529 C 108.603 301.244,108.400 301.090,108.400 303.110 M126.622 305.400 C 127.448 306.850,128.870 308.463,129.111 308.223 C 129.206 308.127,128.861 307.624,128.342 307.104 C 127.824 306.585,127.071 305.719,126.670 305.180 C 125.947 304.211,125.947 304.213,126.622 305.400 M109.200 306.510 C 109.200 307.083,109.387 307.668,109.616 307.810 C 109.889 307.979,109.938 307.677,109.760 306.934 C 109.392 305.401,109.200 305.256,109.200 306.510 M110.009 308.713 C 109.998 309.331,111.991 313.343,112.203 313.131 C 112.284 313.049,111.826 311.906,111.185 310.591 C 110.543 309.276,110.014 308.431,110.009 308.713 M129.822 308.835 C 130.148 309.363,131.601 310.082,131.597 309.714 C 131.595 309.541,131.145 309.192,130.596 308.937 C 130.048 308.683,129.699 308.637,129.822 308.835 M142.000 310.024 C 141.230 310.430,140.741 310.770,140.913 310.781 C 141.403 310.811,144.000 309.666,144.000 309.420 C 144.000 309.079,143.519 309.224,142.000 310.024 M163.067 311.441 C 162.469 312.662,162.130 313.567,162.315 313.452 C 162.798 313.154,164.564 309.631,164.342 309.409 C 164.240 309.306,163.666 310.221,163.067 311.441 M135.700 311.091 C 136.525 311.178,137.875 311.178,138.700 311.091 C 139.525 311.005,138.850 310.934,137.200 310.934 C 135.550 310.934,134.875 311.005,135.700 311.091 M160.467 315.702 C 158.650 318.343,154.714 321.798,151.480 323.592 C 149.896 324.471,148.820 325.192,149.088 325.195 C 151.518 325.221,163.019 315.286,161.879 314.145 C 161.768 314.034,161.133 314.735,160.467 315.702 M113.598 315.526 C 114.199 316.742,118.224 320.783,120.000 321.952 L 121.400 322.873 120.200 321.789 C 116.743 318.663,116.049 317.984,114.656 316.363 C 113.823 315.393,113.347 315.016,113.598 315.526 M122.400 323.600 C 122.950 324.030,123.580 324.382,123.800 324.382 C 124.020 324.382,123.750 324.030,123.200 323.600 C 122.650 323.170,122.020 322.818,121.800 322.818 C 121.580 322.818,121.850 323.170,122.400 323.600 M128.590 326.384 C 128.732 326.613,129.317 326.800,129.890 326.800 C 131.144 326.800,130.999 326.608,129.466 326.240 C 128.723 326.062,128.421 326.111,128.590 326.384 M144.800 326.400 L 143.800 326.720 144.876 326.760 C 145.468 326.782,146.064 326.620,146.200 326.400 C 146.481 325.945,146.220 325.945,144.800 326.400 M131.738 327.294 C 131.992 327.456,134.540 327.588,137.400 327.588 C 140.260 327.588,142.808 327.456,143.062 327.294 C 143.316 327.132,140.768 327.000,137.400 327.000 C 134.032 327.000,131.484 327.132,131.738 327.294 M291.600 327.723 C 279.977 330.800,278.763 345.119,289.676 350.405 C 293.176 352.101,296.325 351.928,300.348 349.820 C 302.349 348.771,305.600 344.712,305.600 343.262 C 305.600 342.814,305.780 342.336,306.000 342.200 C 306.220 342.064,306.400 340.899,306.400 339.611 C 306.400 332.329,298.419 325.918,291.600 327.723 M305.463 337.439 C 306.740 339.390,305.051 344.858,302.332 347.572 C 299.563 350.337,292.730 352.105,291.542 350.365 C 290.247 348.469,292.303 342.108,295.006 339.649 C 298.410 336.552,304.094 335.350,305.463 337.439 M210.638 343.139 C 210.522 343.326,212.233 343.478,214.439 343.478 C 216.729 343.478,218.225 343.335,217.925 343.145 C 217.234 342.707,210.908 342.702,210.638 343.139 M206.590 344.016 C 206.421 344.289,206.723 344.338,207.466 344.160 C 208.999 343.792,209.144 343.600,207.890 343.600 C 207.317 343.600,206.732 343.787,206.590 344.016 M220.600 344.000 C 221.796 344.514,222.795 344.514,222.000 344.000 C 221.670 343.787,221.040 343.622,220.600 343.634 L 219.800 343.656 220.600 344.000 M126.000 345.549 C 121.658 347.783,120.144 352.845,122.577 356.997 C 123.158 357.988,123.772 358.800,123.941 358.800 C 124.111 358.800,124.598 359.115,125.025 359.500 C 126.380 360.724,128.542 361.200,132.742 361.200 L 136.827 361.200 136.785 375.500 C 136.762 383.365,136.891 389.890,137.072 390.000 C 137.579 390.309,137.696 361.598,137.190 360.988 C 136.907 360.646,135.178 360.433,131.885 360.333 C 123.886 360.090,120.102 355.840,122.588 349.890 C 124.349 345.675,126.401 345.093,138.864 345.271 L 147.928 345.400 149.464 346.642 C 152.766 349.313,152.586 347.900,152.713 372.146 C 152.820 392.427,152.785 393.724,152.113 394.233 C 151.446 394.740,151.458 394.775,152.300 394.787 L 153.200 394.800 153.200 372.849 C 153.200 343.217,153.860 344.393,137.251 344.409 L 128.200 344.417 126.000 345.549 M223.400 344.800 C 224.501 345.273,224.892 345.273,224.600 344.800 C 224.464 344.580,223.958 344.413,223.476 344.428 C 222.631 344.455,222.629 344.469,223.400 344.800 M225.233 345.332 C 225.325 345.405,226.660 346.137,228.200 346.958 C 229.740 347.780,230.640 348.156,230.200 347.794 C 229.341 347.088,225.809 345.200,225.347 345.200 C 225.193 345.200,225.142 345.260,225.233 345.332 M197.600 348.141 C 193.402 351.223,190.009 355.189,188.044 359.310 C 185.093 365.498,184.780 368.128,184.880 385.916 L 184.960 400.200 185.231 384.200 C 185.533 366.431,185.604 365.840,188.141 360.000 C 189.795 356.195,194.552 350.612,198.061 348.361 C 199.127 347.677,200.000 347.045,200.000 346.958 C 200.000 346.558,199.259 346.923,197.600 348.141 M231.209 348.673 C 231.215 348.853,231.937 349.531,232.815 350.181 C 234.420 351.368,236.843 354.044,238.186 356.112 C 238.583 356.724,238.999 357.134,239.110 357.023 C 239.569 356.564,234.581 350.791,232.300 349.141 C 231.695 348.703,231.204 348.493,231.209 348.673 M209.297 360.390 C 206.132 361.827,202.400 365.597,202.400 367.357 C 202.400 367.577,202.964 366.866,203.654 365.778 C 205.463 362.927,207.001 361.761,211.200 360.059 C 211.750 359.836,211.930 359.646,211.600 359.636 C 211.270 359.626,210.234 359.965,209.297 360.390 M216.800 360.000 C 217.130 360.213,217.760 360.378,218.200 360.366 L 219.000 360.344 218.200 360.000 C 217.004 359.486,216.005 359.486,216.800 360.000 M219.400 360.800 C 219.536 361.020,219.815 361.200,220.019 361.200 C 221.028 361.200,224.445 364.644,225.370 366.593 C 225.754 367.402,226.156 367.977,226.264 367.870 C 226.548 367.585,225.401 365.500,224.129 363.988 C 222.438 361.979,218.479 359.310,219.400 360.800 M241.628 363.076 C 241.718 364.115,242.344 364.996,242.372 364.124 C 242.387 363.642,242.220 363.136,242.000 363.000 C 241.780 362.864,241.613 362.898,241.628 363.076 M242.646 367.271 C 242.997 369.556,243.200 369.710,243.200 367.690 C 243.200 366.787,243.016 365.933,242.791 365.794 C 242.521 365.627,242.472 366.131,242.646 367.271 M201.849 368.615 C 201.712 368.973,201.640 376.226,201.689 384.733 L 201.778 400.200 201.989 384.200 C 202.215 367.043,202.221 367.648,201.849 368.615 M226.711 382.219 C 226.772 389.909,226.877 396.830,226.944 397.600 C 227.011 398.370,227.074 392.610,227.085 384.800 C 227.096 376.990,226.992 370.069,226.853 369.419 C 226.714 368.770,226.650 374.530,226.711 382.219 M243.378 383.600 C 243.378 390.310,243.432 393.055,243.499 389.700 C 243.566 386.345,243.566 380.855,243.499 377.500 C 243.432 374.145,243.378 376.890,243.378 383.600 " stroke="none" fill="#087069" fill-rule="evenodd"></path><path id="path2" d="M134.700 0.227 C 132.748 2.219,135.896 10.130,139.658 12.688 C 142.573 14.671,148.599 15.697,149.430 14.352 C 149.955 13.501,149.603 7.946,148.984 7.327 C 148.663 7.006,148.400 6.589,148.400 6.400 C 148.400 6.211,148.117 5.774,147.771 5.429 C 147.379 5.036,147.320 4.800,147.613 4.800 C 147.872 4.800,147.226 3.990,146.178 3.000 C 145.130 2.010,144.046 1.200,143.770 1.200 C 143.493 1.200,143.194 0.983,143.106 0.717 C 142.923 0.168,135.199 -0.282,134.700 0.227 M282.875 26.425 C 282.971 26.714,283.286 27.029,283.575 27.125 C 283.875 27.225,284.025 27.075,283.925 26.775 C 283.829 26.486,283.514 26.171,283.225 26.075 C 282.925 25.975,282.775 26.125,282.875 26.425 M135.300 40.488 C 133.150 41.525,134.770 48.008,137.981 51.219 C 140.746 53.984,146.321 55.725,148.330 54.452 C 151.019 52.747,146.156 41.655,142.700 41.609 C 142.315 41.604,142.000 41.461,142.000 41.291 C 142.000 40.425,136.739 39.794,135.300 40.488 M223.200 43.400 C 223.946 44.170,224.647 44.800,224.757 44.800 C 224.867 44.800,224.346 44.170,223.600 43.400 C 222.854 42.630,222.153 42.000,222.043 42.000 C 221.933 42.000,222.454 42.630,223.200 43.400 M242.986 69.000 C 242.986 80.000,243.037 84.442,243.100 78.872 C 243.163 73.302,243.162 64.302,243.100 58.872 C 243.037 53.442,242.985 58.000,242.986 69.000 M265.309 51.200 C 265.309 52.190,265.387 52.595,265.482 52.100 C 265.578 51.605,265.578 50.795,265.482 50.300 C 265.387 49.805,265.309 50.210,265.309 51.200 M185.384 69.200 C 185.384 79.210,185.436 83.305,185.500 78.300 C 185.563 73.295,185.563 65.105,185.500 60.100 C 185.436 55.095,185.384 59.190,185.384 69.200 M201.384 69.200 C 201.384 79.210,201.436 83.305,201.500 78.300 C 201.563 73.295,201.563 65.105,201.500 60.100 C 201.436 55.095,201.384 59.190,201.384 69.200 M133.800 80.567 C 127.621 82.026,129.944 94.621,137.350 99.814 C 142.614 103.504,151.063 103.746,152.331 100.241 C 156.207 89.521,145.231 77.868,133.800 80.567 M265.301 87.000 C 265.305 87.880,265.387 88.193,265.483 87.695 C 265.579 87.198,265.575 86.478,265.475 86.095 C 265.375 85.713,265.296 86.120,265.301 87.000 M306.893 86.800 C 306.893 87.570,306.975 87.885,307.076 87.500 C 307.176 87.115,307.176 86.485,307.076 86.100 C 306.975 85.715,306.893 86.030,306.893 86.800 M283.600 93.725 C 283.600 93.794,284.185 94.379,284.900 95.025 L 286.200 96.200 285.025 94.900 C 283.930 93.688,283.600 93.416,283.600 93.725 M132.878 133.098 C 135.231 133.169,139.191 133.169,141.678 133.099 C 144.165 133.029,142.240 132.971,137.400 132.970 C 132.560 132.970,130.525 133.028,132.878 133.098 M283.278 133.098 C 285.631 133.169,289.591 133.169,292.078 133.099 C 294.565 133.029,292.640 132.971,287.800 132.970 C 282.960 132.970,280.925 133.028,283.278 133.098 M349.100 133.099 C 351.575 133.169,355.625 133.169,358.100 133.099 C 360.575 133.028,358.550 132.971,353.600 132.971 C 348.650 132.971,346.625 133.028,349.100 133.099 M126.200 133.665 C 125.034 134.307,122.799 136.488,122.804 136.978 C 122.807 137.210,123.273 136.811,123.840 136.091 C 124.408 135.371,125.531 134.434,126.336 134.009 C 127.141 133.583,127.620 133.233,127.400 133.230 C 127.180 133.227,126.640 133.423,126.200 133.665 M148.827 134.331 C 149.808 134.954,150.929 135.899,151.317 136.431 C 151.983 137.345,151.999 137.348,151.591 136.487 C 151.144 135.544,148.200 133.200,147.462 133.200 C 147.232 133.200,147.846 133.709,148.827 134.331 M342.089 133.865 C 341.368 134.220,340.843 134.577,340.924 134.657 C 341.095 134.828,343.600 133.624,343.600 133.371 C 343.600 133.129,343.547 133.146,342.089 133.865 M299.600 134.125 C 299.600 134.194,300.185 134.779,300.900 135.425 L 302.200 136.600 301.025 135.300 C 299.930 134.088,299.600 133.816,299.600 134.125 M367.199 136.300 C 367.722 137.015,368.213 137.600,368.289 137.600 C 368.593 137.600,367.601 136.100,366.945 135.567 C 366.513 135.216,366.610 135.496,367.199 136.300 M339.021 137.024 C 338.652 137.587,338.431 138.352,338.529 138.724 C 338.688 139.327,338.712 139.323,338.754 138.686 C 338.779 138.293,339.091 137.528,339.446 136.986 C 339.801 136.444,340.002 136.000,339.892 136.000 C 339.782 136.000,339.390 136.461,339.021 137.024 M122.243 138.233 C 121.905 139.112,121.950 142.502,122.306 143.062 C 122.468 143.316,122.600 142.191,122.600 140.562 C 122.600 137.331,122.597 137.310,122.243 138.233 M152.200 176.839 C 152.200 198.183,152.317 215.232,152.460 214.724 C 152.808 213.489,152.819 139.590,152.472 138.715 C 152.322 138.338,152.200 155.494,152.200 176.839 M368.592 176.600 C 368.592 197.940,368.641 206.611,368.700 195.870 C 368.759 185.128,368.759 167.668,368.700 157.070 C 368.641 146.471,368.592 155.260,368.592 176.600 M83.600 138.525 C 83.600 138.594,84.185 139.179,84.900 139.825 L 86.200 141.000 85.025 139.700 C 83.930 138.488,83.600 138.216,83.600 138.525 M302.992 176.600 C 302.992 197.500,303.041 206.109,303.100 195.730 C 303.159 185.352,303.159 168.252,303.100 157.730 C 303.041 147.209,302.992 155.700,302.992 176.600 M123.114 144.604 C 123.341 145.047,123.948 145.766,124.463 146.202 C 125.367 146.966,125.365 146.952,124.406 145.797 C 122.813 143.879,122.679 143.755,123.114 144.604 M274.400 145.786 C 274.400 146.099,276.850 147.683,277.040 147.493 C 277.147 147.386,276.596 146.923,275.817 146.463 C 275.038 146.003,274.400 145.699,274.400 145.786 M341.544 146.776 C 342.064 147.229,342.679 147.600,342.911 147.600 C 343.403 147.600,343.379 147.580,341.800 146.655 L 340.600 145.953 341.544 146.776 M63.300 147.087 C 63.905 147.178,64.895 147.178,65.500 147.087 C 66.105 146.995,65.610 146.920,64.400 146.920 C 63.190 146.920,62.695 146.995,63.300 147.087 M213.305 147.087 C 213.914 147.179,214.814 147.177,215.305 147.082 C 215.797 146.987,215.300 146.911,214.200 146.914 C 213.100 146.917,212.697 146.995,213.305 147.087 M129.600 148.260 C 132.882 148.553,137.512 148.577,137.340 148.300 C 137.237 148.135,135.138 148.030,132.676 148.067 C 130.214 148.104,128.830 148.191,129.600 148.260 M283.100 148.299 L 287.600 148.426 287.640 180.713 C 287.662 198.471,287.797 213.416,287.940 213.925 C 288.083 214.434,288.153 200.034,288.096 181.925 C 288.039 163.816,287.909 148.775,287.809 148.500 C 287.674 148.133,286.423 148.023,283.113 148.086 L 278.600 148.171 283.100 148.299 M349.000 148.379 L 353.400 148.600 353.604 181.400 L 353.807 214.200 353.904 181.343 C 353.991 151.694,353.938 148.462,353.367 148.243 C 353.019 148.109,350.904 148.036,348.667 148.079 L 344.600 148.158 349.000 148.379 M35.693 157.600 C 35.693 158.370,35.775 158.685,35.876 158.300 C 35.976 157.915,35.976 157.285,35.876 156.900 C 35.775 156.515,35.693 156.830,35.693 157.600 M242.986 176.600 C 242.986 187.600,243.037 192.042,243.100 186.472 C 243.163 180.902,243.162 171.902,243.100 166.472 C 243.037 161.042,242.985 165.600,242.986 176.600 M185.384 176.600 C 185.384 186.720,185.436 190.803,185.500 185.673 C 185.563 180.542,185.563 172.262,185.500 167.273 C 185.436 162.283,185.384 166.480,185.384 176.600 M201.384 176.600 C 201.384 186.720,201.436 190.803,201.500 185.673 C 201.563 180.542,201.563 172.262,201.500 167.273 C 201.436 162.283,201.384 166.480,201.384 176.600 M77.384 176.600 C 77.384 186.500,77.436 190.493,77.500 185.473 C 77.563 180.453,77.563 172.353,77.500 167.473 C 77.436 162.593,77.384 166.700,77.384 176.600 M55.200 202.600 C 55.946 203.370,56.647 204.000,56.757 204.000 C 56.867 204.000,56.346 203.370,55.600 202.600 C 54.854 201.830,54.153 201.200,54.043 201.200 C 53.933 201.200,54.454 201.830,55.200 202.600 M73.178 202.700 L 71.800 204.200 73.300 202.822 C 74.696 201.538,74.984 201.200,74.678 201.200 C 74.612 201.200,73.937 201.875,73.178 202.700 M288.402 215.353 C 288.397 216.173,290.139 218.421,291.367 219.180 C 292.097 219.631,292.853 219.999,293.047 219.998 C 293.241 219.997,292.700 219.572,291.844 219.054 C 290.988 218.536,289.864 217.412,289.346 216.556 C 288.828 215.700,288.403 215.159,288.402 215.353 M302.130 215.900 C 301.995 216.285,301.325 217.230,300.642 218.000 L 299.400 219.400 300.865 218.055 C 301.671 217.316,302.419 216.371,302.528 215.955 C 302.776 215.004,302.459 214.960,302.130 215.900 M367.217 216.972 C 366.751 217.726,366.152 218.432,365.885 218.540 C 365.525 218.686,365.522 218.745,365.873 218.768 C 366.286 218.796,367.248 217.673,368.158 216.100 C 368.827 214.944,367.994 215.716,367.217 216.972 M150.426 217.707 C 149.287 219.111,149.242 219.229,150.163 218.400 C 151.120 217.538,152.256 215.986,151.914 216.007 C 151.851 216.011,151.182 216.776,150.426 217.707 M354.800 216.925 C 354.800 216.994,355.385 217.579,356.100 218.225 L 357.400 219.400 356.225 218.100 C 355.130 216.888,354.800 216.616,354.800 216.925 M144.105 220.287 C 144.714 220.379,145.614 220.377,146.105 220.282 C 146.597 220.187,146.100 220.111,145.000 220.114 C 143.900 220.117,143.497 220.195,144.105 220.287 M294.500 220.287 C 295.105 220.378,296.095 220.378,296.700 220.287 C 297.305 220.195,296.810 220.120,295.600 220.120 C 294.390 220.120,293.895 220.195,294.500 220.287 M360.505 220.287 C 361.114 220.379,362.014 220.377,362.505 220.282 C 362.997 220.187,362.500 220.111,361.400 220.114 C 360.300 220.117,359.897 220.195,360.505 220.287 M136.705 236.283 C 137.202 236.379,137.922 236.375,138.305 236.275 C 138.687 236.175,138.280 236.096,137.400 236.101 C 136.520 236.105,136.207 236.187,136.705 236.283 M58.000 239.456 C 60.974 239.714,74.006 239.786,73.127 239.540 C 72.617 239.397,68.690 239.292,64.400 239.307 C 60.110 239.322,57.230 239.389,58.000 239.456 M210.521 239.498 C 212.677 239.571,216.097 239.570,218.121 239.498 C 220.144 239.425,218.380 239.366,214.200 239.367 C 210.020 239.367,208.364 239.426,210.521 239.498 M77.231 241.931 C 77.764 242.605,78.337 243.166,78.503 243.178 C 79.004 243.214,77.942 241.756,77.072 241.213 C 76.371 240.775,76.392 240.871,77.231 241.931 M226.400 240.967 C 226.400 241.388,227.605 242.528,227.821 242.312 C 227.922 242.211,227.644 241.802,227.202 241.402 C 226.761 241.003,226.400 240.807,226.400 240.967 M229.000 283.200 C 229.000 304.718,229.132 322.116,229.294 321.862 C 229.456 321.608,229.588 304.210,229.588 283.200 C 229.588 262.190,229.456 244.792,229.294 244.538 C 229.132 244.284,229.000 261.682,229.000 283.200 M199.013 246.100 C 198.883 247.035,198.933 248.340,199.125 249.000 C 199.398 249.941,199.468 249.575,199.453 247.300 C 199.430 243.963,199.343 243.724,199.013 246.100 M49.324 247.000 C 49.326 248.320,49.401 248.812,49.490 248.093 C 49.579 247.374,49.577 246.294,49.486 245.693 C 49.395 245.092,49.322 245.680,49.324 247.000 M299.800 248.955 C 294.798 250.173,290.782 253.408,288.698 257.897 C 286.921 261.725,286.802 268.355,288.484 269.801 C 290.565 271.591,297.220 271.441,301.086 269.518 C 307.209 266.471,310.957 259.062,309.560 252.766 C 308.695 248.869,305.415 247.588,299.800 248.955 M49.949 250.600 C 50.165 251.040,50.634 251.760,50.993 252.200 L 51.644 253.000 51.251 252.200 C 51.035 251.760,50.566 251.040,50.207 250.600 L 49.556 249.800 49.949 250.600 M199.914 251.000 C 200.141 251.440,200.838 252.249,201.463 252.799 L 202.600 253.797 201.403 252.399 C 199.507 250.182,199.480 250.158,199.914 251.000 M136.705 252.283 C 137.202 252.379,137.922 252.375,138.305 252.275 C 138.687 252.175,138.280 252.096,137.400 252.101 C 136.520 252.105,136.207 252.187,136.705 252.283 M56.800 254.659 C 60.112 254.953,64.312 254.976,64.140 254.700 C 64.037 254.535,62.028 254.430,59.676 254.467 C 57.324 254.504,56.030 254.590,56.800 254.659 M146.200 256.000 C 147.059 256.880,147.852 257.600,147.962 257.600 C 148.072 257.600,147.459 256.880,146.600 256.000 C 145.741 255.120,144.948 254.400,144.838 254.400 C 144.728 254.400,145.341 255.120,146.200 256.000 M209.385 254.692 C 212.227 254.781,213.892 255.000,214.116 255.314 C 214.363 255.662,214.414 255.629,214.298 255.200 C 214.165 254.713,213.275 254.596,209.567 254.578 L 205.000 254.556 209.385 254.692 M108.586 281.800 C 108.586 292.800,108.637 297.242,108.700 291.672 C 108.763 286.102,108.762 277.102,108.700 271.672 C 108.637 266.242,108.585 270.800,108.586 281.800 M166.185 281.800 C 166.185 292.360,166.237 296.623,166.300 291.272 C 166.363 285.922,166.363 277.282,166.300 272.072 C 166.236 266.863,166.185 271.240,166.185 281.800 M150.184 281.800 C 150.184 291.920,150.236 296.003,150.300 290.873 C 150.363 285.742,150.363 277.462,150.300 272.473 C 150.236 267.483,150.184 271.680,150.184 281.800 M300.600 296.772 C 295.322 298.049,291.774 302.167,291.324 307.540 C 291.047 310.836,291.147 310.933,294.753 310.871 C 299.921 310.783,303.735 307.634,305.427 302.059 C 306.844 297.390,305.253 295.647,300.600 296.772 M136.300 311.482 C 136.795 311.578,137.605 311.578,138.100 311.482 C 138.595 311.387,138.190 311.309,137.200 311.309 C 136.210 311.309,135.805 311.387,136.300 311.482 M64.468 319.800 C 64.462 320.240,64.611 320.960,64.800 321.400 C 65.238 322.419,65.238 321.368,64.800 320.000 C 64.543 319.196,64.477 319.157,64.468 319.800 M215.514 323.404 C 215.741 323.847,216.348 324.566,216.863 325.002 C 217.767 325.766,217.765 325.752,216.806 324.597 C 215.213 322.679,215.079 322.555,215.514 323.404 M300.400 336.774 C 294.729 337.919,289.023 346.674,291.542 350.365 C 293.349 353.013,302.154 349.202,304.400 344.800 C 307.536 338.652,306.034 335.638,300.400 336.774 M213.700 343.476 C 214.085 343.576,214.715 343.576,215.100 343.476 C 215.485 343.375,215.170 343.293,214.400 343.293 C 213.630 343.293,213.315 343.375,213.700 343.476 M132.723 345.499 C 135.431 345.568,139.751 345.568,142.323 345.499 C 144.895 345.429,142.680 345.372,137.400 345.373 C 132.120 345.373,130.015 345.430,132.723 345.499 M122.243 350.633 C 121.906 351.509,121.949 354.501,122.306 355.062 C 122.468 355.316,122.600 354.281,122.600 352.762 C 122.600 349.741,122.595 349.714,122.243 350.633 M152.316 371.751 C 152.429 392.862,152.408 393.568,151.669 393.963 C 151.249 394.188,150.834 394.333,150.746 394.286 C 150.658 394.239,150.703 394.350,150.846 394.533 C 152.547 396.715,154.035 356.481,152.460 350.874 C 152.317 350.364,152.252 359.759,152.316 371.751 M132.176 360.299 C 134.583 360.370,136.788 360.624,137.076 360.863 C 137.412 361.142,137.600 361.152,137.600 360.892 C 137.600 360.171,136.419 359.998,132.067 360.085 L 127.800 360.170 132.176 360.299 M242.979 382.000 C 242.979 389.150,243.033 392.075,243.099 388.500 C 243.166 384.925,243.166 379.075,243.099 375.500 C 243.033 371.925,242.979 374.850,242.979 382.000 M185.381 385.000 C 185.380 392.920,185.434 396.217,185.499 392.326 C 185.565 388.435,185.565 381.955,185.500 377.926 C 185.434 373.897,185.381 377.080,185.381 385.000 M201.381 385.400 C 201.381 393.540,201.434 396.813,201.500 392.674 C 201.565 388.534,201.565 381.874,201.499 377.874 C 201.434 373.873,201.381 377.260,201.381 385.400 " stroke="none" fill="#049c5c" fill-rule="evenodd"></path><path id="path3" d="M183.000 8.775 C 182.340 8.944,181.057 8.998,180.150 8.894 C 179.242 8.790,177.890 8.906,177.145 9.152 C 176.400 9.398,174.753 9.623,173.486 9.653 C 172.219 9.682,171.085 9.862,170.967 10.053 C 170.849 10.244,169.694 10.400,168.400 10.400 C 167.106 10.400,165.936 10.580,165.800 10.800 C 165.664 11.020,164.674 11.200,163.600 11.200 C 162.526 11.200,161.536 11.380,161.400 11.600 C 161.264 11.820,160.353 12.000,159.376 12.000 C 158.399 12.000,157.600 12.180,157.600 12.400 C 157.600 12.620,156.880 12.800,156.000 12.800 C 155.120 12.800,154.400 12.980,154.400 13.200 C 154.400 13.420,153.680 13.600,152.800 13.600 C 151.920 13.600,151.200 13.780,151.200 14.000 C 151.200 14.220,150.905 14.400,150.544 14.400 C 149.808 14.400,149.094 15.200,148.173 17.058 C 145.240 22.971,137.761 25.587,132.113 22.676 C 130.966 22.084,129.810 21.600,129.545 21.600 C 129.280 21.600,128.692 21.285,128.238 20.900 C 127.453 20.233,127.440 20.233,127.956 20.900 C 128.434 21.517,128.397 21.600,127.649 21.600 C 127.182 21.600,126.800 21.760,126.800 21.956 C 126.800 22.152,125.990 22.551,125.000 22.843 C 124.010 23.135,123.200 23.515,123.200 23.687 C 123.200 23.859,122.840 24.000,122.400 24.000 C 121.960 24.000,121.600 24.180,121.600 24.400 C 121.600 24.620,121.291 24.800,120.913 24.800 C 119.898 24.800,116.712 26.040,115.858 26.768 C 115.450 27.116,115.090 27.317,115.058 27.216 C 114.976 26.956,108.629 30.105,108.467 30.486 C 108.393 30.659,107.988 30.800,107.567 30.800 C 107.145 30.800,106.800 30.980,106.800 31.200 C 106.800 31.420,106.480 31.600,106.088 31.600 C 105.697 31.600,105.117 31.960,104.800 32.400 C 104.483 32.840,103.903 33.200,103.512 33.200 C 103.120 33.200,102.800 33.380,102.800 33.600 C 102.800 33.820,102.440 34.000,102.000 34.000 C 101.560 34.000,101.200 34.180,101.200 34.400 C 101.200 34.620,100.964 34.800,100.675 34.800 C 100.387 34.800,99.764 35.160,99.292 35.600 C 98.820 36.040,98.156 36.400,97.817 36.400 C 97.478 36.400,97.200 36.580,97.200 36.800 C 97.200 37.020,96.930 37.200,96.600 37.200 C 96.270 37.200,96.000 37.380,96.000 37.600 C 96.000 37.820,95.730 38.000,95.400 38.000 C 95.070 38.000,94.800 38.180,94.800 38.400 C 94.800 38.620,94.530 38.800,94.200 38.800 C 93.870 38.800,93.600 38.980,93.600 39.200 C 93.600 39.420,93.330 39.600,93.000 39.600 C 92.670 39.600,92.400 39.780,92.400 40.000 C 92.400 40.220,92.130 40.400,91.800 40.400 C 91.470 40.400,91.200 40.567,91.200 40.771 C 91.200 40.975,90.480 41.460,89.600 41.848 C 88.720 42.236,88.000 42.687,88.000 42.850 C 88.000 43.013,87.634 43.262,87.187 43.404 C 86.740 43.546,85.938 44.098,85.405 44.631 C 84.872 45.164,84.275 45.600,84.078 45.600 C 83.880 45.600,83.154 46.140,82.463 46.800 C 81.772 47.460,81.052 48.000,80.863 48.000 C 80.674 48.000,79.954 48.540,79.263 49.200 C 78.572 49.860,77.901 50.400,77.771 50.400 C 77.641 50.400,76.629 51.300,75.524 52.400 C 74.418 53.500,73.349 54.400,73.148 54.400 C 72.947 54.400,71.817 55.345,70.637 56.500 C 69.457 57.655,67.886 59.048,67.146 59.595 C 65.228 61.012,56.346 69.931,55.190 71.600 C 54.656 72.370,53.180 74.025,51.910 75.278 C 50.639 76.531,49.600 77.655,49.600 77.777 C 49.600 77.899,48.880 78.741,48.000 79.648 C 47.120 80.555,46.400 81.461,46.400 81.662 C 46.400 81.862,45.770 82.657,45.000 83.427 C 44.230 84.197,43.600 84.973,43.600 85.152 C 43.600 85.438,43.155 86.048,41.607 87.883 C 41.383 88.149,41.200 88.604,41.200 88.895 C 41.200 89.186,40.840 89.683,40.400 90.000 C 39.960 90.317,39.600 90.805,39.600 91.085 C 39.600 91.364,39.060 92.109,38.400 92.740 C 37.740 93.371,37.200 94.092,37.200 94.343 C 37.200 94.594,37.020 94.800,36.800 94.800 C 36.580 94.800,36.400 95.070,36.400 95.400 C 36.400 95.730,36.220 96.000,36.000 96.000 C 35.780 96.000,35.600 96.270,35.600 96.600 C 35.600 96.930,35.420 97.200,35.200 97.200 C 34.980 97.200,34.800 97.436,34.800 97.725 C 34.800 98.013,34.440 98.636,34.000 99.108 C 33.560 99.580,33.200 100.204,33.200 100.495 C 33.200 100.786,32.840 101.283,32.400 101.600 C 31.960 101.917,31.600 102.497,31.600 102.888 C 31.600 103.280,31.420 103.600,31.200 103.600 C 30.980 103.600,30.800 103.878,30.800 104.217 C 30.800 104.556,30.440 105.220,30.000 105.692 C 29.560 106.164,29.200 106.787,29.200 107.075 C 29.200 107.364,29.020 107.600,28.800 107.600 C 28.580 107.600,28.400 107.945,28.400 108.367 C 28.400 108.788,28.259 109.193,28.086 109.267 C 27.914 109.340,26.879 111.200,25.786 113.400 C 24.694 115.600,23.665 117.460,23.500 117.533 C 23.335 117.607,23.200 118.012,23.200 118.433 C 23.200 118.855,23.020 119.200,22.800 119.200 C 22.580 119.200,22.400 119.639,22.400 120.176 C 22.400 120.713,22.220 121.264,22.000 121.400 C 21.780 121.536,21.600 121.997,21.600 122.424 C 21.600 122.851,21.420 123.200,21.200 123.200 C 20.980 123.200,20.800 123.560,20.800 124.000 C 20.800 124.440,20.620 124.800,20.400 124.800 C 20.180 124.800,20.000 125.160,20.000 125.600 C 20.000 126.040,19.820 126.400,19.600 126.400 C 19.380 126.400,19.200 126.850,19.200 127.400 C 19.200 127.950,19.020 128.400,18.800 128.400 C 18.580 128.400,18.400 128.760,18.400 129.200 C 18.400 129.640,18.220 130.000,18.000 130.000 C 17.780 130.000,17.600 130.450,17.600 131.000 C 17.600 131.550,17.420 132.000,17.200 132.000 C 16.980 132.000,16.800 132.450,16.800 133.000 C 16.800 133.550,16.620 134.000,16.400 134.000 C 16.180 134.000,16.000 134.540,16.000 135.200 C 16.000 135.860,15.853 136.400,15.672 136.400 C 15.492 136.400,15.096 137.311,14.793 138.425 C 14.490 139.539,14.097 140.540,13.921 140.649 C 13.744 140.758,13.600 141.276,13.600 141.800 C 13.600 142.324,13.420 142.864,13.200 143.000 C 12.980 143.136,12.800 143.676,12.800 144.200 C 12.800 144.724,12.620 145.264,12.400 145.400 C 12.180 145.536,12.000 146.177,12.000 146.824 C 12.000 147.471,11.840 148.000,11.644 148.000 C 11.448 148.000,11.191 148.585,11.072 149.300 C 10.713 151.470,10.357 152.959,9.997 153.800 C 9.809 154.240,9.545 155.230,9.412 156.000 C 9.279 156.770,9.079 157.850,8.968 158.400 C 8.858 158.950,8.666 160.210,8.543 161.200 C 8.419 162.190,8.156 163.171,7.959 163.380 C 7.762 163.589,7.600 164.523,7.600 165.456 C 7.600 166.389,7.420 167.264,7.200 167.400 C 6.980 167.536,6.800 168.537,6.800 169.624 C 6.800 170.711,6.620 171.600,6.400 171.600 C 6.175 171.600,6.000 172.725,6.000 174.176 C 6.000 175.593,5.820 176.864,5.600 177.000 C 5.380 177.136,5.200 178.587,5.200 180.224 C 5.200 181.941,5.031 183.200,4.800 183.200 C 4.554 183.200,4.400 185.200,4.400 188.400 C 4.400 191.600,4.246 193.600,4.000 193.600 C 3.454 193.600,3.454 214.662,4.000 215.000 C 4.232 215.143,4.400 217.337,4.400 220.224 C 4.400 223.275,4.555 225.200,4.800 225.200 C 5.033 225.200,5.200 226.533,5.200 228.400 C 5.200 230.267,5.367 231.600,5.600 231.600 C 5.829 231.600,6.000 232.800,6.000 234.400 C 6.000 236.000,6.171 237.200,6.400 237.200 C 6.620 237.200,6.800 238.100,6.800 239.200 C 6.800 240.300,6.980 241.200,7.200 241.200 C 7.420 241.200,7.600 242.190,7.600 243.400 C 7.600 244.610,7.780 245.600,8.000 245.600 C 8.220 245.600,8.400 246.309,8.400 247.176 C 8.400 248.043,8.556 248.849,8.746 248.967 C 8.937 249.085,9.006 249.636,8.899 250.193 C 8.793 250.749,8.919 251.461,9.179 251.775 C 9.439 252.088,9.668 252.903,9.687 253.587 C 9.707 254.270,9.875 254.923,10.061 255.038 C 10.248 255.153,10.400 255.766,10.400 256.400 C 10.400 257.034,10.580 257.664,10.800 257.800 C 11.020 257.936,11.200 258.577,11.200 259.224 C 11.200 259.871,11.380 260.400,11.600 260.400 C 11.820 260.400,12.000 260.792,12.000 261.272 C 12.000 262.192,12.660 264.528,13.249 265.695 C 13.442 266.077,13.600 266.664,13.600 267.000 C 13.600 267.336,13.780 267.968,14.000 268.405 C 14.220 268.842,14.580 269.558,14.800 269.995 C 15.020 270.432,15.200 271.152,15.200 271.595 C 15.200 272.038,15.380 272.400,15.600 272.400 C 15.820 272.400,16.000 272.839,16.000 273.376 C 16.000 273.913,16.180 274.464,16.400 274.600 C 16.620 274.736,16.800 275.287,16.800 275.824 C 16.800 276.361,16.980 276.800,17.200 276.800 C 17.420 276.800,17.600 277.160,17.600 277.600 C 17.600 278.040,17.780 278.400,18.000 278.400 C 18.220 278.400,18.400 278.940,18.400 279.600 C 18.400 280.260,18.580 280.800,18.800 280.800 C 19.020 280.800,19.200 281.160,19.200 281.600 C 19.200 282.040,19.380 282.400,19.600 282.400 C 19.820 282.400,20.000 282.760,20.000 283.200 C 20.000 283.640,20.180 284.000,20.400 284.000 C 20.620 284.000,20.800 284.272,20.800 284.605 C 20.800 284.938,20.960 285.523,21.156 285.905 C 21.352 286.287,21.937 287.500,22.456 288.600 C 22.975 289.700,23.535 290.660,23.700 290.733 C 23.865 290.807,24.000 291.212,24.000 291.633 C 24.000 292.055,24.180 292.400,24.400 292.400 C 24.620 292.400,24.800 292.689,24.800 293.042 C 24.800 293.771,27.618 299.330,28.091 299.533 C 28.261 299.607,28.400 300.012,28.400 300.433 C 28.400 300.855,28.580 301.200,28.800 301.200 C 29.020 301.200,29.200 301.478,29.200 301.817 C 29.200 302.156,29.560 302.820,30.000 303.292 C 30.440 303.764,30.800 304.387,30.800 304.675 C 30.800 304.964,30.936 305.200,31.102 305.200 C 31.269 305.200,31.660 305.785,31.972 306.500 C 32.284 307.215,32.868 308.091,33.270 308.447 C 33.671 308.803,34.000 309.348,34.000 309.659 C 34.000 309.969,34.360 310.483,34.800 310.800 C 35.240 311.117,35.600 311.657,35.600 312.000 C 35.600 312.343,35.960 312.883,36.400 313.200 C 36.840 313.517,37.200 314.057,37.200 314.400 C 37.200 314.743,37.560 315.283,38.000 315.600 C 38.440 315.917,38.800 316.457,38.800 316.800 C 38.800 317.143,39.160 317.683,39.600 318.000 C 40.040 318.317,40.400 318.807,40.400 319.088 C 40.400 319.370,40.580 319.600,40.800 319.600 C 41.020 319.600,41.200 319.870,41.200 320.200 C 41.200 320.530,41.341 320.800,41.514 320.800 C 41.686 320.800,42.172 321.385,42.593 322.100 C 43.014 322.815,43.773 323.848,44.280 324.396 C 44.786 324.944,45.200 325.524,45.200 325.685 C 45.200 325.847,46.010 326.789,47.000 327.779 C 47.990 328.769,48.800 329.774,48.800 330.012 C 48.800 330.250,49.880 331.504,51.200 332.800 C 52.520 334.096,53.600 335.254,53.600 335.373 C 53.600 336.037,66.241 348.872,68.400 350.400 C 69.170 350.945,70.700 352.249,71.800 353.297 C 74.891 356.244,77.982 358.800,78.453 358.800 C 78.687 358.800,79.383 359.340,80.000 360.000 C 80.617 360.660,81.292 361.200,81.501 361.200 C 81.710 361.200,82.446 361.740,83.137 362.400 C 83.828 363.060,84.583 363.600,84.815 363.600 C 85.047 363.600,85.686 364.050,86.236 364.600 C 86.786 365.150,87.400 365.600,87.600 365.600 C 87.800 365.600,88.414 366.050,88.964 366.600 C 89.514 367.150,90.227 367.600,90.548 367.600 C 90.870 367.600,91.193 367.747,91.267 367.928 C 91.456 368.393,96.269 371.600,96.778 371.600 C 97.010 371.600,97.200 371.735,97.200 371.901 C 97.200 372.066,98.055 372.648,99.100 373.195 C 100.145 373.741,101.238 374.416,101.529 374.694 C 101.819 374.972,102.404 375.200,102.829 375.200 C 103.253 375.200,103.600 375.380,103.600 375.600 C 103.600 375.820,103.960 376.000,104.400 376.000 C 104.840 376.000,105.200 376.180,105.200 376.400 C 105.200 376.620,105.560 376.800,106.000 376.800 C 106.440 376.800,106.800 376.980,106.800 377.200 C 106.800 377.420,107.160 377.600,107.600 377.600 C 108.040 377.600,108.400 377.780,108.400 378.000 C 108.400 378.220,108.670 378.400,109.000 378.400 C 109.330 378.400,109.600 378.580,109.600 378.800 C 109.600 379.020,109.960 379.200,110.400 379.200 C 110.840 379.200,111.200 379.380,111.200 379.600 C 111.200 379.820,111.560 380.000,112.000 380.000 C 112.440 380.000,112.801 380.135,112.803 380.300 C 112.807 380.659,114.744 381.600,115.480 381.600 C 115.766 381.600,116.000 381.780,116.000 382.000 C 116.000 382.220,116.360 382.400,116.800 382.400 C 117.240 382.400,117.600 382.580,117.600 382.800 C 117.600 383.020,117.960 383.200,118.400 383.200 C 118.840 383.200,119.200 383.380,119.200 383.600 C 119.200 383.820,119.560 384.000,120.000 384.000 C 120.440 384.000,120.800 384.147,120.800 384.328 C 120.800 384.508,121.700 384.900,122.800 385.200 C 123.900 385.500,124.800 385.892,124.800 386.072 C 124.800 386.253,125.072 386.400,125.405 386.400 C 125.738 386.400,126.368 386.580,126.805 386.800 C 127.242 387.020,127.958 387.380,128.395 387.600 C 128.832 387.820,129.552 388.000,129.995 388.000 C 130.438 388.000,130.800 388.147,130.800 388.328 C 130.800 388.508,131.711 388.904,132.825 389.207 C 133.939 389.510,134.940 389.903,135.049 390.079 C 135.158 390.256,135.584 390.400,135.996 390.400 C 136.713 390.400,136.746 389.785,136.785 375.800 L 136.826 361.200 132.741 361.200 C 128.542 361.200,126.380 360.724,125.025 359.500 C 124.598 359.115,124.111 358.800,123.941 358.800 C 123.772 358.800,123.158 357.988,122.577 356.997 C 120.144 352.845,121.658 347.783,126.000 345.549 L 128.200 344.417 137.251 344.409 C 153.844 344.393,153.200 343.254,153.200 372.616 C 153.200 396.847,153.089 395.600,155.243 395.600 C 156.099 395.600,156.800 395.780,156.800 396.000 C 156.800 396.220,157.610 396.400,158.600 396.400 C 159.590 396.400,160.400 396.580,160.400 396.800 C 160.400 397.020,161.289 397.200,162.376 397.200 C 163.463 397.200,164.464 397.380,164.600 397.600 C 164.736 397.820,165.827 398.000,167.024 398.000 C 168.221 398.000,169.200 398.180,169.200 398.400 C 169.200 398.628,170.389 398.800,171.967 398.800 C 173.488 398.800,174.793 398.954,174.867 399.142 C 174.940 399.331,177.205 399.584,179.900 399.705 L 184.800 399.925 184.800 385.779 C 184.800 368.127,185.132 365.416,188.044 359.310 C 190.727 353.684,195.807 348.636,201.400 346.041 C 202.500 345.530,203.713 344.952,204.095 344.756 C 204.477 344.560,205.141 344.400,205.571 344.400 C 206.001 344.400,206.464 344.220,206.600 344.000 C 206.736 343.780,207.611 343.600,208.544 343.600 C 209.477 343.600,210.434 343.406,210.671 343.169 C 211.383 342.457,218.224 342.989,222.200 344.066 C 228.834 345.862,236.517 351.734,239.224 357.075 C 239.761 358.134,240.335 359.060,240.500 359.133 C 240.665 359.207,240.800 359.612,240.800 360.033 C 240.800 360.455,240.980 360.800,241.200 360.800 C 241.420 360.800,241.600 361.239,241.600 361.776 C 241.600 362.313,241.780 362.864,242.000 363.000 C 242.220 363.136,242.400 363.741,242.400 364.344 C 242.400 364.947,242.614 365.654,242.875 365.915 C 243.217 366.257,243.399 370.463,243.527 380.995 L 243.704 395.600 245.052 395.600 C 245.793 395.600,246.400 395.420,246.400 395.200 C 246.400 394.980,247.120 394.800,248.000 394.800 C 248.880 394.800,249.600 394.620,249.600 394.400 C 249.600 394.180,250.320 394.000,251.200 394.000 C 252.080 394.000,252.800 393.820,252.800 393.600 C 252.800 393.380,253.340 393.200,254.000 393.200 C 254.660 393.200,255.200 393.020,255.200 392.800 C 255.200 392.580,255.830 392.400,256.600 392.400 C 257.370 392.400,258.000 392.243,258.000 392.052 C 258.000 391.860,258.941 391.578,260.090 391.426 C 261.240 391.273,262.365 391.013,262.590 390.846 C 262.816 390.680,263.810 390.314,264.800 390.033 C 265.790 389.752,266.913 389.360,267.295 389.161 C 267.677 388.962,268.262 388.800,268.595 388.800 C 268.928 388.800,269.200 388.620,269.200 388.400 C 269.200 388.180,269.562 388.000,270.005 388.000 C 270.448 388.000,271.168 387.820,271.605 387.600 C 272.042 387.380,272.758 387.020,273.195 386.800 C 273.632 386.580,274.262 386.400,274.595 386.400 C 274.928 386.400,275.200 386.220,275.200 386.000 C 275.200 385.780,275.549 385.600,275.976 385.600 C 276.403 385.600,276.864 385.420,277.000 385.200 C 277.136 384.980,277.687 384.800,278.224 384.800 C 278.761 384.800,279.200 384.620,279.200 384.400 C 279.200 384.180,279.560 384.000,280.000 384.000 C 280.440 384.000,280.800 383.820,280.800 383.600 C 280.800 383.380,281.160 383.200,281.600 383.200 C 282.040 383.200,282.400 383.020,282.400 382.800 C 282.400 382.580,282.760 382.400,283.200 382.400 C 283.640 382.400,284.000 382.220,284.000 382.000 C 284.000 381.780,284.360 381.600,284.800 381.600 C 285.240 381.600,285.600 381.420,285.600 381.200 C 285.600 380.980,285.853 380.800,286.162 380.800 C 286.828 380.800,290.141 379.132,290.333 378.700 C 290.407 378.535,290.722 378.400,291.033 378.400 C 291.345 378.400,291.600 378.220,291.600 378.000 C 291.600 377.780,291.960 377.600,292.400 377.600 C 292.840 377.600,293.200 377.420,293.200 377.200 C 293.200 376.980,293.560 376.800,294.000 376.800 C 294.440 376.800,294.800 376.620,294.800 376.400 C 294.800 376.180,295.160 376.000,295.600 376.000 C 296.040 376.000,296.400 375.820,296.400 375.600 C 296.400 375.380,296.747 375.200,297.171 375.200 C 297.596 375.200,298.181 374.972,298.471 374.694 C 298.762 374.416,299.855 373.741,300.900 373.195 C 301.945 372.648,302.800 372.066,302.800 371.901 C 302.800 371.735,302.993 371.600,303.228 371.600 C 303.463 371.600,304.441 371.060,305.400 370.400 C 306.359 369.740,307.297 369.200,307.484 369.200 C 307.671 369.200,308.083 368.840,308.400 368.400 C 308.717 367.960,309.257 367.600,309.600 367.600 C 309.943 367.600,310.483 367.240,310.800 366.800 C 311.117 366.360,311.580 366.000,311.829 366.000 C 312.078 366.000,312.846 365.460,313.537 364.800 C 314.228 364.140,314.976 363.600,315.200 363.600 C 315.424 363.600,316.172 363.060,316.863 362.400 C 317.554 361.740,318.290 361.200,318.499 361.200 C 318.708 361.200,319.383 360.660,320.000 360.000 C 320.617 359.340,321.313 358.800,321.547 358.800 C 322.018 358.800,325.109 356.244,328.200 353.297 C 329.300 352.249,330.830 350.948,331.600 350.406 C 333.352 349.173,346.400 336.070,346.400 335.543 C 346.400 335.330,347.480 334.096,348.800 332.800 C 350.120 331.504,351.200 330.240,351.200 329.991 C 351.200 329.741,351.920 328.846,352.800 328.000 C 353.680 327.154,354.400 326.291,354.400 326.080 C 354.400 325.870,354.697 325.451,355.061 325.149 C 355.931 324.428,358.800 320.535,358.800 320.076 C 358.800 319.880,359.340 319.154,360.000 318.463 C 360.660 317.772,361.200 316.975,361.200 316.692 C 361.200 316.409,361.560 315.917,362.000 315.600 C 362.440 315.283,362.800 314.743,362.800 314.400 C 362.800 314.057,363.160 313.517,363.600 313.200 C 364.040 312.883,364.400 312.343,364.400 312.000 C 364.400 311.657,364.760 311.117,365.200 310.800 C 365.640 310.483,366.000 309.969,366.000 309.659 C 366.000 309.348,366.316 308.803,366.703 308.447 C 367.089 308.091,367.674 307.260,368.002 306.600 C 368.330 305.940,368.689 305.310,368.799 305.200 C 369.195 304.806,370.454 302.587,370.671 301.900 C 370.793 301.515,371.052 301.200,371.247 301.200 C 371.441 301.200,371.600 300.840,371.600 300.400 C 371.600 299.960,371.780 299.600,372.000 299.600 C 372.220 299.600,372.400 299.255,372.400 298.833 C 372.400 298.412,372.557 298.007,372.749 297.933 C 373.221 297.753,375.200 293.781,375.200 293.013 C 375.200 292.676,375.380 292.400,375.600 292.400 C 375.820 292.400,376.000 292.055,376.000 291.633 C 376.000 291.212,376.135 290.807,376.300 290.733 C 376.732 290.541,378.400 287.228,378.400 286.562 C 378.400 286.253,378.580 286.000,378.800 286.000 C 379.020 286.000,379.200 285.550,379.200 285.000 C 379.200 284.450,379.380 284.000,379.600 284.000 C 379.820 284.000,380.000 283.640,380.000 283.200 C 380.000 282.760,380.180 282.400,380.400 282.400 C 380.620 282.400,380.800 282.051,380.800 281.624 C 380.800 281.197,380.980 280.736,381.200 280.600 C 381.420 280.464,381.600 279.913,381.600 279.376 C 381.600 278.839,381.780 278.400,382.000 278.400 C 382.220 278.400,382.400 278.040,382.400 277.600 C 382.400 277.160,382.580 276.800,382.800 276.800 C 383.020 276.800,383.200 276.361,383.200 275.824 C 383.200 275.287,383.380 274.736,383.600 274.600 C 383.820 274.464,384.000 273.913,384.000 273.376 C 384.000 272.839,384.180 272.400,384.400 272.400 C 384.620 272.400,384.800 272.051,384.800 271.624 C 384.800 271.197,384.980 270.736,385.200 270.600 C 385.420 270.464,385.600 269.924,385.600 269.400 C 385.600 268.876,385.780 268.336,386.000 268.200 C 386.220 268.064,386.400 267.524,386.400 267.000 C 386.400 266.476,386.580 265.936,386.800 265.800 C 387.020 265.664,387.200 265.124,387.200 264.600 C 387.200 264.076,387.380 263.536,387.600 263.400 C 387.820 263.264,388.000 262.533,388.000 261.776 C 388.000 261.019,388.180 260.400,388.400 260.400 C 388.620 260.400,388.800 259.871,388.800 259.224 C 388.800 258.577,388.980 257.936,389.200 257.800 C 389.420 257.664,389.600 257.034,389.600 256.400 C 389.600 255.766,389.780 255.136,390.000 255.000 C 390.220 254.864,390.400 254.144,390.400 253.400 C 390.400 252.656,390.568 251.943,390.773 251.817 C 390.978 251.690,391.272 250.145,391.426 248.384 C 391.579 246.623,391.861 245.086,392.052 244.968 C 392.244 244.849,392.400 243.953,392.400 242.976 C 392.400 241.999,392.580 241.200,392.800 241.200 C 393.020 241.200,393.200 240.311,393.200 239.224 C 393.200 238.137,393.380 237.136,393.600 237.000 C 393.820 236.864,394.000 235.593,394.000 234.176 C 394.000 232.725,394.175 231.600,394.400 231.600 C 394.633 231.600,394.800 230.267,394.800 228.400 C 394.800 226.533,394.967 225.200,395.200 225.200 C 395.445 225.200,395.600 223.267,395.600 220.200 C 395.600 217.133,395.755 215.200,396.000 215.200 C 396.257 215.200,396.400 211.333,396.400 204.400 C 396.400 197.467,396.257 193.600,396.000 193.600 C 395.755 193.600,395.600 191.675,395.600 188.624 C 395.600 185.737,395.432 183.543,395.200 183.400 C 394.980 183.264,394.800 181.824,394.800 180.200 C 394.800 178.576,394.620 177.136,394.400 177.000 C 394.180 176.864,394.000 175.593,394.000 174.176 C 394.000 172.725,393.825 171.600,393.600 171.600 C 393.380 171.600,393.200 170.700,393.200 169.600 C 393.200 168.500,393.020 167.600,392.800 167.600 C 392.580 167.600,392.400 166.711,392.400 165.624 C 392.400 164.537,392.241 163.549,392.048 163.429 C 391.854 163.310,391.568 161.860,391.414 160.208 C 391.259 158.557,390.967 157.104,390.766 156.979 C 390.565 156.855,390.400 156.144,390.400 155.400 C 390.400 154.656,390.240 153.948,390.044 153.827 C 389.849 153.706,389.579 152.976,389.444 152.204 C 389.310 151.432,389.090 150.170,388.956 149.400 C 388.822 148.630,388.552 148.000,388.356 148.000 C 388.160 148.000,388.000 147.460,388.000 146.800 C 388.000 146.140,387.820 145.600,387.600 145.600 C 387.380 145.600,387.200 145.096,387.200 144.480 C 387.200 143.864,387.048 143.189,386.863 142.980 C 386.678 142.771,386.093 141.206,385.563 139.502 C 385.033 137.798,384.465 136.403,384.300 136.402 C 384.135 136.401,384.000 135.860,384.000 135.200 C 384.000 134.540,383.820 134.000,383.600 134.000 C 383.380 134.000,383.200 133.651,383.200 133.224 C 383.200 132.797,383.020 132.336,382.800 132.200 C 382.580 132.064,382.400 131.513,382.400 130.976 C 382.400 130.439,382.220 130.000,382.000 130.000 C 381.780 130.000,381.600 129.640,381.600 129.200 C 381.600 128.760,381.420 128.400,381.200 128.400 C 380.980 128.400,380.800 127.950,380.800 127.400 C 380.800 126.850,380.620 126.400,380.400 126.400 C 380.180 126.400,380.000 126.040,380.000 125.600 C 380.000 125.160,379.820 124.800,379.600 124.800 C 379.380 124.800,379.200 124.440,379.200 124.000 C 379.200 123.560,379.020 123.200,378.800 123.200 C 378.580 123.200,378.400 122.928,378.400 122.595 C 378.400 122.262,378.220 121.632,378.000 121.195 C 377.780 120.758,377.420 120.042,377.200 119.605 C 376.980 119.168,376.800 118.538,376.800 118.205 C 376.800 117.872,376.620 117.600,376.400 117.600 C 376.180 117.600,376.000 117.240,376.000 116.800 C 376.000 116.360,375.820 116.000,375.600 116.000 C 375.380 116.000,375.199 115.685,375.197 115.300 C 375.196 114.915,374.833 114.060,374.390 113.400 C 373.947 112.740,373.102 111.210,372.511 110.000 C 371.921 108.790,371.339 107.710,371.218 107.600 C 371.097 107.490,370.744 106.905,370.432 106.300 C 370.120 105.695,369.715 105.200,369.532 105.200 C 369.350 105.200,369.200 104.840,369.200 104.400 C 369.200 103.960,369.020 103.600,368.800 103.600 C 368.580 103.600,368.400 103.280,368.400 102.888 C 368.400 102.497,368.040 101.917,367.600 101.600 C 367.160 101.283,366.800 100.703,366.800 100.312 C 366.800 99.920,366.620 99.600,366.400 99.600 C 366.180 99.600,366.000 99.330,366.000 99.000 C 366.000 98.670,365.820 98.400,365.600 98.400 C 365.380 98.400,365.200 98.130,365.200 97.800 C 365.200 97.470,365.020 97.200,364.800 97.200 C 364.580 97.200,364.400 96.964,364.400 96.675 C 364.400 96.387,364.040 95.764,363.600 95.292 C 363.160 94.820,362.800 94.246,362.800 94.017 C 362.800 93.788,362.659 93.600,362.486 93.600 C 362.314 93.600,361.851 93.055,361.457 92.389 C 361.064 91.723,360.305 90.741,359.771 90.207 C 359.237 89.673,358.797 89.003,358.794 88.718 C 358.790 88.433,358.250 87.591,357.594 86.846 C 356.937 86.101,356.400 85.355,356.400 85.188 C 356.400 85.021,355.860 84.307,355.200 83.600 C 354.540 82.893,354.000 82.159,354.000 81.968 C 354.000 81.777,353.190 80.811,352.200 79.821 C 351.210 78.831,350.400 77.913,350.400 77.780 C 350.400 77.648,349.140 76.282,347.600 74.745 C 346.060 73.208,344.800 71.764,344.800 71.536 C 344.800 71.040,333.806 60.057,332.451 59.200 C 331.930 58.870,330.334 57.475,328.905 56.100 C 327.476 54.725,326.070 53.600,325.780 53.600 C 325.491 53.600,325.140 53.240,325.000 52.800 C 324.860 52.360,324.495 52.000,324.188 52.000 C 323.722 52.000,323.604 54.994,323.466 70.300 C 323.279 91.142,323.158 92.312,320.581 98.200 C 318.413 103.155,310.892 111.200,308.428 111.200 C 308.193 111.200,308.000 111.380,308.000 111.600 C 308.000 111.820,307.640 112.000,307.200 112.000 C 306.760 112.000,306.400 112.180,306.400 112.400 C 306.400 112.620,306.051 112.800,305.624 112.800 C 305.197 112.800,304.749 112.959,304.630 113.152 C 304.400 113.523,304.244 113.569,299.800 114.570 C 293.810 115.918,285.932 114.810,280.859 111.905 C 280.057 111.445,278.884 110.805,278.253 110.482 C 273.302 107.947,267.617 99.954,265.806 92.983 L 264.800 89.112 264.800 69.382 C 264.800 45.305,265.052 43.576,269.563 36.717 C 271.902 33.161,277.073 28.002,278.300 28.000 C 278.575 28.000,278.800 27.854,278.800 27.675 C 278.800 27.496,279.430 27.102,280.200 26.800 C 282.070 26.066,281.983 25.271,280.000 24.954 C 279.120 24.813,278.400 24.541,278.400 24.349 C 278.400 24.157,278.040 24.000,277.600 24.000 C 277.160 24.000,276.800 23.820,276.800 23.600 C 276.800 23.380,276.440 23.200,276.000 23.200 C 275.560 23.200,275.200 23.020,275.200 22.800 C 275.200 22.580,274.750 22.400,274.200 22.400 C 273.650 22.400,273.200 22.220,273.200 22.000 C 273.200 21.780,272.750 21.600,272.200 21.600 C 271.650 21.600,271.200 21.420,271.200 21.200 C 271.200 20.980,270.750 20.800,270.200 20.800 C 269.650 20.800,269.200 20.620,269.200 20.400 C 269.200 20.180,268.660 20.000,268.000 20.000 C 267.340 20.000,266.800 19.820,266.800 19.600 C 266.800 19.380,266.260 19.200,265.600 19.200 C 264.940 19.200,264.400 19.020,264.400 18.800 C 264.400 18.580,263.961 18.400,263.424 18.400 C 262.887 18.400,262.336 18.220,262.200 18.000 C 262.064 17.780,261.423 17.600,260.776 17.600 C 260.129 17.600,259.600 17.420,259.600 17.200 C 259.600 16.980,259.161 16.800,258.624 16.800 C 258.087 16.800,257.536 16.620,257.400 16.400 C 257.264 16.180,256.623 16.000,255.976 16.000 C 255.329 16.000,254.800 15.820,254.800 15.600 C 254.800 15.380,254.170 15.200,253.400 15.200 C 252.630 15.200,252.000 15.020,252.000 14.800 C 252.000 14.580,251.280 14.400,250.400 14.400 C 249.520 14.400,248.800 14.220,248.800 14.000 C 248.800 13.780,248.080 13.600,247.200 13.600 C 246.320 13.600,245.600 13.420,245.600 13.200 C 245.600 12.980,244.880 12.800,244.000 12.800 C 243.120 12.800,242.400 12.620,242.400 12.400 C 242.400 12.180,241.601 12.000,240.624 12.000 C 239.647 12.000,238.736 11.820,238.600 11.600 C 238.464 11.380,237.474 11.200,236.400 11.200 C 235.326 11.200,234.336 11.020,234.200 10.800 C 234.064 10.580,232.894 10.400,231.600 10.400 C 230.306 10.400,229.151 10.244,229.032 10.052 C 228.914 9.861,227.744 9.681,226.431 9.651 C 225.118 9.621,223.555 9.411,222.958 9.184 C 222.360 8.957,220.955 8.772,219.836 8.773 C 218.716 8.774,210.240 8.706,201.000 8.621 C 191.760 8.537,183.660 8.606,183.000 8.775 M220.703 23.808 C 221.639 23.960,222.505 24.245,222.626 24.442 C 222.748 24.639,223.172 24.800,223.568 24.800 C 224.436 24.800,230.142 27.685,231.029 28.572 C 231.374 28.917,231.794 29.200,231.961 29.200 C 233.702 29.200,241.600 40.029,241.600 42.417 C 241.600 42.822,241.780 43.264,242.000 43.400 C 242.220 43.536,242.400 44.141,242.400 44.744 C 242.400 45.347,242.625 46.065,242.900 46.340 C 243.288 46.728,243.400 51.845,243.400 69.200 C 243.400 86.555,243.288 91.672,242.900 92.060 C 242.625 92.335,242.400 93.053,242.400 93.656 C 242.400 94.259,242.220 94.864,242.000 95.000 C 241.780 95.136,241.600 95.578,241.600 95.983 C 241.600 98.685,235.965 106.169,231.347 109.600 C 229.475 110.991,226.335 112.653,224.141 113.413 C 206.281 119.605,187.879 108.285,185.238 89.484 C 184.651 85.310,184.655 53.058,185.242 48.916 C 186.676 38.803,192.489 30.656,201.400 26.273 C 203.859 25.064,204.179 24.951,208.800 23.652 C 210.273 23.238,217.805 23.336,220.703 23.808 M141.344 40.413 C 152.963 44.761,151.607 60.903,139.392 63.637 C 133.334 64.992,126.841 60.426,125.671 53.988 C 124.074 45.206,133.148 37.347,141.344 40.413 M211.000 40.400 C 210.864 40.620,210.313 40.800,209.776 40.800 C 209.239 40.800,208.800 40.980,208.800 41.200 C 208.800 41.420,208.555 41.600,208.256 41.600 C 207.229 41.600,204.053 45.006,203.030 47.203 L 202.008 49.400 202.008 69.200 L 202.008 89.000 202.981 91.091 C 207.508 100.814,220.600 100.722,225.635 90.932 L 226.600 89.056 226.600 68.948 C 226.600 53.395,226.487 48.727,226.100 48.340 C 225.825 48.065,225.600 47.608,225.600 47.325 C 225.600 46.813,225.256 46.328,223.060 43.744 C 220.683 40.948,212.128 38.575,211.000 40.400 M290.107 40.566 C 286.673 41.814,283.695 44.857,282.377 48.462 C 281.461 50.968,281.162 86.109,282.034 88.840 C 284.641 97.013,293.893 101.069,300.062 96.744 C 300.646 96.335,301.251 96.000,301.408 96.000 C 301.964 96.000,304.309 93.130,305.103 91.478 C 306.717 88.122,306.800 87.037,306.800 69.200 C 306.800 57.754,306.649 51.335,306.355 50.246 C 305.230 46.081,302.707 42.700,299.764 41.416 C 298.904 41.040,297.887 40.568,297.505 40.366 C 296.549 39.862,291.683 39.993,290.107 40.566 M141.172 80.061 C 146.492 81.780,150.087 84.720,151.859 88.800 C 152.098 89.350,152.530 90.299,152.819 90.910 C 153.928 93.248,153.512 99.221,152.037 102.126 C 144.626 116.728,124.727 114.134,121.654 98.165 C 119.626 87.630,131.244 76.854,141.172 80.061 M73.622 132.207 C 81.182 134.779,87.544 140.416,90.765 147.400 C 91.272 148.500,91.848 149.713,92.044 150.095 C 92.240 150.477,92.400 151.154,92.400 151.600 C 92.400 152.046,92.562 152.723,92.760 153.105 C 94.556 156.573,94.529 193.671,92.725 200.600 C 91.408 205.662,88.523 210.609,84.724 214.322 C 73.431 225.360,55.420 225.360,44.064 214.322 C 40.353 210.715,37.696 206.158,35.947 200.400 C 35.149 197.772,35.147 155.433,35.946 152.800 C 36.893 149.674,38.746 145.513,39.300 145.267 C 39.465 145.193,39.603 144.923,39.607 144.667 C 39.627 143.382,45.149 137.685,48.549 135.442 C 55.385 130.932,65.889 129.577,73.622 132.207 M223.814 132.382 C 232.161 135.221,238.359 141.423,242.021 150.600 C 243.305 153.819,243.660 160.931,243.524 180.682 C 243.426 194.749,243.277 199.283,242.898 199.662 C 242.624 199.936,242.400 200.576,242.400 201.085 C 242.400 201.977,242.268 202.349,241.262 204.295 C 241.008 204.787,240.800 205.462,240.800 205.795 C 240.800 206.128,240.662 206.400,240.494 206.400 C 240.326 206.400,239.891 207.075,239.527 207.900 C 237.570 212.334,231.313 217.941,225.898 220.114 C 218.328 223.153,213.777 223.410,205.474 221.266 C 198.885 219.566,191.244 213.000,188.044 206.290 C 185.043 199.996,184.800 197.772,184.800 176.560 C 184.800 157.887,185.080 154.091,186.771 149.800 C 187.454 148.068,189.548 144.049,190.002 143.600 C 190.114 143.490,190.711 142.721,191.330 141.891 C 198.402 132.404,212.094 128.396,223.814 132.382 M147.688 132.818 C 149.606 133.350,151.431 134.900,152.418 136.834 C 153.178 138.325,153.200 139.437,153.193 176.684 L 153.187 215.000 152.293 216.562 C 149.419 221.588,143.449 222.528,139.352 218.600 C 136.729 216.085,136.805 217.188,136.802 181.300 L 136.800 148.800 132.387 148.800 C 129.321 148.800,127.525 148.612,126.502 148.185 C 119.821 145.393,119.757 135.915,126.400 133.038 C 128.086 132.307,145.213 132.130,147.688 132.818 M298.036 132.667 C 299.958 133.052,302.911 136.131,303.535 138.401 C 303.915 139.784,304.003 148.807,303.915 177.400 L 303.800 214.600 302.847 216.464 C 300.148 221.743,293.403 222.598,289.352 218.175 C 287.199 215.825,287.200 215.836,287.200 181.023 L 287.200 148.800 282.849 148.800 C 277.872 148.800,276.212 148.299,274.148 146.174 C 270.339 142.251,271.619 135.407,276.583 133.152 C 278.270 132.386,294.766 132.013,298.036 132.667 M365.484 133.426 C 367.074 134.448,368.118 135.751,368.956 137.756 C 370.105 140.507,369.918 213.733,368.755 216.207 C 365.734 222.634,356.961 222.569,353.743 216.095 C 353.040 214.680,352.994 212.829,352.889 181.700 L 352.778 148.800 348.489 148.770 C 343.752 148.736,342.282 148.353,340.393 146.662 C 335.790 142.542,337.376 134.594,343.165 132.770 C 345.622 131.996,364.105 132.539,365.484 133.426 M61.600 147.847 C 58.484 148.433,54.723 151.476,53.140 154.692 L 52.200 156.600 52.200 176.800 L 52.200 197.000 53.128 198.738 C 55.943 204.014,62.306 207.097,67.172 205.544 C 72.177 203.946,75.614 200.613,76.611 196.393 C 77.029 194.619,77.064 159.005,76.649 157.400 C 74.894 150.623,68.482 146.552,61.600 147.847 M211.200 147.967 C 207.525 148.815,204.639 151.220,203.051 154.758 L 201.972 157.163 202.086 177.281 L 202.200 197.400 203.311 199.290 C 208.636 208.348,220.821 207.893,225.675 198.454 L 226.600 196.656 226.600 176.548 C 226.600 160.995,226.487 156.327,226.100 155.940 C 225.825 155.665,225.600 155.116,225.600 154.720 C 225.600 154.324,225.420 154.000,225.200 154.000 C 224.980 154.000,224.800 153.755,224.800 153.455 C 224.800 150.345,216.103 146.836,211.200 147.967 M142.000 236.186 C 146.591 237.084,151.912 239.092,152.333 240.085 C 152.407 240.258,152.677 240.401,152.933 240.401 C 154.210 240.405,162.000 248.187,162.000 249.459 C 162.000 249.720,162.144 249.993,162.320 250.067 C 163.233 250.447,165.487 256.384,166.368 260.731 C 166.950 263.601,166.955 299.964,166.374 302.869 C 164.390 312.788,158.201 321.197,150.300 324.711 C 149.695 324.980,148.750 325.380,148.200 325.600 C 147.650 325.820,146.795 326.166,146.300 326.370 C 144.343 327.174,142.782 327.342,137.400 327.325 C 131.735 327.308,128.974 327.005,128.573 326.356 C 128.452 326.160,127.913 326.000,127.376 326.000 C 126.839 326.000,126.400 325.820,126.400 325.600 C 126.400 325.380,126.135 325.200,125.812 325.200 C 123.762 325.200,113.600 317.209,113.600 315.597 C 113.600 315.410,113.369 315.019,113.086 314.729 C 112.648 314.278,112.044 313.118,109.534 307.905 C 109.350 307.523,109.200 306.794,109.200 306.285 C 109.200 305.776,108.975 305.135,108.700 304.860 C 108.312 304.472,108.200 299.315,108.200 281.800 C 108.200 264.285,108.312 259.128,108.700 258.740 C 108.975 258.465,109.200 257.824,109.200 257.315 C 109.200 256.806,109.408 255.987,109.662 255.495 C 110.633 253.618,110.800 253.193,110.800 252.605 C 110.800 252.272,110.936 252.000,111.102 252.000 C 111.269 252.000,111.661 251.415,111.973 250.700 C 112.899 248.583,118.512 242.000,119.391 242.000 C 119.524 242.000,119.997 241.661,120.441 241.247 C 120.886 240.833,122.453 239.915,123.925 239.205 C 125.396 238.496,126.870 237.782,127.200 237.619 C 127.530 237.456,128.790 237.089,130.000 236.803 C 131.210 236.518,132.740 236.147,133.400 235.978 C 135.361 235.478,138.802 235.561,142.000 236.186 M75.400 239.642 C 80.670 242.119,80.434 239.971,80.308 284.272 L 80.200 322.200 79.209 323.600 C 75.472 328.878,68.787 328.989,65.300 323.832 L 64.000 321.910 64.000 288.789 L 64.000 255.669 59.500 255.527 C 55.879 255.413,54.635 255.212,53.133 254.498 C 46.731 251.453,46.898 242.874,53.423 239.619 C 55.900 238.383,72.759 238.401,75.400 239.642 M225.800 239.828 C 228.165 241.051,229.875 243.805,230.192 246.897 C 230.843 253.255,230.229 321.748,229.510 323.021 C 226.608 328.157,220.453 329.093,216.074 325.064 C 213.939 323.099,214.012 324.318,213.902 288.800 L 213.800 255.800 209.400 255.552 C 204.057 255.251,203.293 255.056,201.433 253.523 C 196.575 249.519,197.855 241.528,203.702 239.357 C 206.160 238.444,223.855 238.821,225.800 239.828 M300.522 240.948 C 315.136 247.411,312.667 268.136,296.890 271.437 C 286.797 273.549,276.553 263.385,278.417 253.107 C 280.301 242.713,291.091 236.778,300.522 240.948 M135.253 252.831 C 131.574 253.554,126.000 257.844,126.000 259.952 C 126.000 260.331,125.775 260.865,125.500 261.140 C 124.822 261.818,124.771 300.986,125.446 302.439 C 125.692 302.968,126.142 303.925,126.446 304.566 C 127.144 306.035,130.275 309.200,131.032 309.200 C 131.344 309.200,131.600 309.336,131.600 309.503 C 131.600 310.921,139.504 311.224,142.304 309.913 C 149.445 306.571,150.001 304.538,149.995 281.827 C 149.990 261.104,149.799 259.835,146.141 256.177 C 144.335 254.372,137.544 251.590,137.027 252.444 C 137.012 252.468,136.214 252.642,135.253 252.831 M298.942 288.627 C 304.488 291.394,307.630 297.836,305.882 302.853 C 301.653 314.990,285.194 314.042,282.387 301.499 C 280.386 292.555,290.716 284.522,298.942 288.627 M299.000 328.583 C 303.166 330.509,306.400 335.328,306.400 339.611 C 306.400 340.899,306.220 342.064,306.000 342.200 C 305.780 342.336,305.600 342.814,305.600 343.262 C 305.600 344.712,302.349 348.771,300.348 349.820 C 294.990 352.628,289.748 351.827,285.616 347.568 C 276.490 338.165,287.118 323.088,299.000 328.583 M210.334 360.387 C 207.003 361.655,205.112 363.263,203.262 366.400 L 202.200 368.200 202.083 384.165 L 201.965 400.129 213.480 399.871 C 220.690 399.709,225.046 399.461,225.131 399.206 C 225.206 398.983,225.628 398.800,226.070 398.800 C 226.863 398.800,226.871 398.605,226.718 383.700 L 226.563 368.600 225.582 366.832 C 222.326 360.968,215.920 358.260,210.334 360.387 " stroke="none" fill="#042c4c" fill-rule="evenodd"></path></g></svg>